  0
SECTION
  2
HEADER
  9
$ACADVER
  1
AC1027
  9
$ACADMAINTVER
 70
   125
  9
$DWGCODEPAGE
  3
ANSI_1252
  9
$REQUIREDVERSIONS
160
                 0
  9
$INSBASE
 10
0.0
 20
0.0
 30
0.0
  9
$EXTMIN
 10
1.000000000000000E+20
 20
1.000000000000000E+20
 30
1.000000000000000E+20
  9
$EXTMAX
 10
-1.000000000000000E+20
 20
-1.000000000000000E+20
 30
-1.000000000000000E+20
  9
$LIMMIN
 10
0.0
 20
0.0
  9
$LIMMAX
 10
12.0
 20
9.0
  9
$ORTHOMODE
 70
     0
  9
$REGENMODE
 70
     1
  9
$FILLMODE
 70
     1
  9
$QTEXTMODE
 70
     0
  9
$MIRRTEXT
 70
     0
  9
$LTSCALE
 40
1.0
  9
$ATTMODE
 70
     1
  9
$TEXTSIZE
 40
0.2
  9
$TRACEWID
 40
0.05
  9
$TEXTSTYLE
  7
Standard
  9
$CLAYER
  8
0
  9
$CELTYPE
  6
ByLayer
  9
$CECOLOR
 62
   256
  9
$CELTSCALE
 40
1.0
  9
$DISPSILH
 70
     0
  9
$DIMSCALE
 40
1.0
  9
$DIMASZ
 40
0.18
  9
$DIMEXO
 40
0.0625
  9
$DIMDLI
 40
0.38
  9
$DIMRND
 40
0.0
  9
$DIMDLE
 40
0.0
  9
$DIMEXE
 40
0.18
  9
$DIMTP
 40
0.0
  9
$DIMTM
 40
0.0
  9
$DIMTXT
 40
0.18
  9
$DIMCEN
 40
0.09
  9
$DIMTSZ
 40
0.0
  9
$DIMTOL
 70
     0
  9
$DIMLIM
 70
     0
  9
$DIMTIH
 70
     1
  9
$DIMTOH
 70
     1
  9
$DIMSE1
 70
     0
  9
$DIMSE2
 70
     0
  9
$DIMTAD
 70
     0
  9
$DIMZIN
 70
     0
  9
$DIMBLK
  1

  9
$DIMASO
 70
     1
  9
$DIMSHO
 70
     1
  9
$DIMPOST
  1

  9
$DIMAPOST
  1

  9
$DIMALT
 70
     0
  9
$DIMALTD
 70
     2
  9
$DIMALTF
 40
25.4
  9
$DIMLFAC
 40
1.0
  9
$DIMTOFL
 70
     0
  9
$DIMTVP
 40
0.0
  9
$DIMTIX
 70
     0
  9
$DIMSOXD
 70
     0
  9
$DIMSAH
 70
     0
  9
$DIMBLK1
  1

  9
$DIMBLK2
  1

  9
$DIMSTYLE
  2
Standard
  9
$DIMCLRD
 70
     0
  9
$DIMCLRE
 70
     0
  9
$DIMCLRT
 70
     0
  9
$DIMTFAC
 40
1.0
  9
$DIMGAP
 40
0.09
  9
$DIMJUST
 70
     0
  9
$DIMSD1
 70
     0
  9
$DIMSD2
 70
     0
  9
$DIMTOLJ
 70
     1
  9
$DIMTZIN
 70
     0
  9
$DIMALTZ
 70
     0
  9
$DIMALTTZ
 70
     0
  9
$DIMUPT
 70
     0
  9
$DIMDEC
 70
     4
  9
$DIMTDEC
 70
     4
  9
$DIMALTU
 70
     2
  9
$DIMALTTD
 70
     2
  9
$DIMTXSTY
  7
Standard
  9
$DIMAUNIT
 70
     0
  9
$DIMADEC
 70
     0
  9
$DIMALTRND
 40
0.0
  9
$DIMAZIN
 70
     0
  9
$DIMDSEP
 70
    46
  9
$DIMATFIT
 70
     3
  9
$DIMFRAC
 70
     0
  9
$DIMLDRBLK
  1

  9
$DIMLUNIT
 70
     2
  9
$DIMLWD
 70
    -2
  9
$DIMLWE
 70
    -2
  9
$DIMTMOVE
 70
     0
  9
$DIMFXL
 40
1.0
  9
$DIMFXLON
 70
     0
  9
$DIMJOGANG
 40
0.7853981633974483
  9
$DIMTFILL
 70
     0
  9
$DIMTFILLCLR
 70
     0
  9
$DIMARCSYM
 70
     0
  9
$DIMLTYPE
  6

  9
$DIMLTEX1
  6

  9
$DIMLTEX2
  6

  9
$DIMTXTDIRECTION
 70
     0
  9
$LUNITS
 70
     2
  9
$LUPREC
 70
     4
  9
$SKETCHINC
 40
0.1
  9
$FILLETRAD
 40
0.0
  9
$AUNITS
 70
     0
  9
$AUPREC
 70
     0
  9
$MENU
  1
.
  9
$ELEVATION
 40
0.0
  9
$PELEVATION
 40
0.0
  9
$THICKNESS
 40
0.0
  9
$LIMCHECK
 70
     0
  9
$CHAMFERA
 40
0.0
  9
$CHAMFERB
 40
0.0
  9
$CHAMFERC
 40
0.0
  9
$CHAMFERD
 40
0.0
  9
$SKPOLY
 70
     0
  9
$TDCREATE
 40
2459324.468287038
  9
$TDUCREATE
 40
2459324.468287038
  9
$TDUPDATE
 40
2459324.468287038
  9
$TDUUPDATE
 40
2459324.468287038
  9
$TDINDWG
 40
0.0000000000
  9
$TDUSRTIMER
 40
0.0000000000
  9
$USRTIMER
 70
     1
  9
$ANGBASE
 50
0.0
  9
$ANGDIR
 70
     0
  9
$PDMODE
 70
     0
  9
$PDSIZE
 40
0.0
  9
$PLINEWID
 40
0.0
  9
$SPLFRAME
 70
     0
  9
$SPLINETYPE
 70
     6
  9
$SPLINESEGS
 70
     8
  9
$HANDSEED
  5
F3
  9
$SURFTAB1
 70
     6
  9
$SURFTAB2
 70
     6
  9
$SURFTYPE
 70
     6
  9
$SURFU
 70
     6
  9
$SURFV
 70
     6
  9
$UCSBASE
  2

  9
$UCSNAME
  2

  9
$UCSORG
 10
0.0
 20
0.0
 30
0.0
  9
$UCSXDIR
 10
1.0
 20
0.0
 30
0.0
  9
$UCSYDIR
 10
0.0
 20
1.0
 30
0.0
  9
$UCSORTHOREF
  2

  9
$UCSORTHOVIEW
 70
     0
  9
$UCSORGTOP
 10
0.0
 20
0.0
 30
0.0
  9
$UCSORGBOTTOM
 10
0.0
 20
0.0
 30
0.0
  9
$UCSORGLEFT
 10
0.0
 20
0.0
 30
0.0
  9
$UCSORGRIGHT
 10
0.0
 20
0.0
 30
0.0
  9
$UCSORGFRONT
 10
0.0
 20
0.0
 30
0.0
  9
$UCSORGBACK
 10
0.0
 20
0.0
 30
0.0
  9
$PUCSBASE
  2

  9
$PUCSNAME
  2

  9
$PUCSORG
 10
0.0
 20
0.0
 30
0.0
  9
$PUCSXDIR
 10
1.0
 20
0.0
 30
0.0
  9
$PUCSYDIR
 10
0.0
 20
1.0
 30
0.0
  9
$PUCSORTHOREF
  2

  9
$PUCSORTHOVIEW
 70
     0
  9
$PUCSORGTOP
 10
0.0
 20
0.0
 30
0.0
  9
$PUCSORGBOTTOM
 10
0.0
 20
0.0
 30
0.0
  9
$PUCSORGLEFT
 10
0.0
 20
0.0
 30
0.0
  9
$PUCSORGRIGHT
 10
0.0
 20
0.0
 30
0.0
  9
$PUCSORGFRONT
 10
0.0
 20
0.0
 30
0.0
  9
$PUCSORGBACK
 10
0.0
 20
0.0
 30
0.0
  9
$USERI1
 70
     0
  9
$USERI2
 70
     0
  9
$USERI3
 70
     0
  9
$USERI4
 70
     0
  9
$USERI5
 70
     0
  9
$USERR1
 40
0.0
  9
$USERR2
 40
0.0
  9
$USERR3
 40
0.0
  9
$USERR4
 40
0.0
  9
$USERR5
 40
0.0
  9
$WORLDVIEW
 70
     1
  9
$SHADEDGE
 70
     3
  9
$SHADEDIF
 70
    70
  9
$TILEMODE
 70
     1
  9
$MAXACTVP
 70
    64
  9
$PINSBASE
 10
0.0
 20
0.0
 30
0.0
  9
$PLIMCHECK
 70
     0
  9
$PEXTMIN
 10
1.000000000000000E+20
 20
1.000000000000000E+20
 30
1.000000000000000E+20
  9
$PEXTMAX
 10
-1.000000000000000E+20
 20
-1.000000000000000E+20
 30
-1.000000000000000E+20
  9
$PLIMMIN
 10
0.0
 20
0.0
  9
$PLIMMAX
 10
12.0
 20
9.0
  9
$UNITMODE
 70
     0
  9
$VISRETAIN
 70
     1
  9
$PLINEGEN
 70
     0
  9
$PSLTSCALE
 70
     1
  9
$TREEDEPTH
 70
  3020
  9
$CMLSTYLE
  2
Standard
  9
$CMLJUST
 70
     0
  9
$CMLSCALE
 40
1.0
  9
$PROXYGRAPHICS
 70
     1
  9
$MEASUREMENT
 70
     0
  9
$CELWEIGHT
370
    -1
  9
$ENDCAPS
280
     0
  9
$JOINSTYLE
280
     0
  9
$LWDISPLAY
290
     0
  9
$INSUNITS
 70
     5
  9
$HYPERLINKBASE
  1

  9
$STYLESHEET
  1

  9
$XEDIT
290
     1
  9
$CEPSNTYPE
380
     0
  9
$PSTYLEMODE
290
     1
  9
$FINGERPRINTGUID
  2
{AEEEBE9D-37EE-414E-8ABF-8DD23422AF2A}
  9
$VERSIONGUID
  2
{5EE41406-0F70-9949-9B57-0E380092D21B}
  9
$EXTNAMES
290
     1
  9
$PSVPSCALE
 40
0.0
  9
$OLESTARTUP
290
     0
  9
$SORTENTS
280
   127
  9
$INDEXCTL
280
     0
  9
$HIDETEXT
280
     1
  9
$XCLIPFRAME
280
     2
  9
$HALOGAP
280
     0
  9
$OBSCOLOR
 70
   257
  9
$OBSLTYPE
280
     0
  9
$INTERSECTIONDISPLAY
280
     0
  9
$INTERSECTIONCOLOR
 70
   257
  9
$DIMASSOC
280
     2
  9
$PROJECTNAME
  1

  9
$CAMERADISPLAY
290
     0
  9
$LENSLENGTH
 40
50.0
  9
$CAMERAHEIGHT
 40
0.0
  9
$STEPSPERSEC
 40
2.0
  9
$STEPSIZE
 40
6.0
  9
$3DDWFPREC
 40
2.0
  9
$PSOLWIDTH
 40
0.25
  9
$PSOLHEIGHT
 40
4.0
  9
$LOFTANG1
 40
1.570796326794896
  9
$LOFTANG2
 40
1.570796326794896
  9
$LOFTMAG1
 40
0.0
  9
$LOFTMAG2
 40
0.0
  9
$LOFTPARAM
 70
     7
  9
$LOFTNORMALS
280
     1
  9
$LATITUDE
 40
37.795
  9
$LONGITUDE
 40
-122.394
  9
$NORTHDIRECTION
 40
0.0
  9
$TIMEZONE
 70
 -8000
  9
$LIGHTGLYPHDISPLAY
280
     1
  9
$TILEMODELIGHTSYNCH
280
     1
  9
$CMATERIAL
347
11
  9
$SOLIDHIST
280
     0
  9
$SHOWHIST
280
     1
  9
$DWFFRAME
280
     2
  9
$DGNFRAME
280
     0
  9
$REALWORLDSCALE
290
     1
  9
$INTERFERECOLOR
 62
     1
  9
$INTERFEREOBJVS
345
33
  9
$INTERFEREVPVS
346
30
  9
$CSHADOW
280
     0
  9
$SHADOWPLANELOCATION
 40
0.0
  0
ENDSEC
  0
SECTION
  2
CLASSES
  0
CLASS
  1
ACDBDICTIONARYWDFLT
  2
AcDbDictionaryWithDefault
  3
ObjectDBX Classes
 90
        0
 91
        1
280
     0
281
     0
  0
CLASS
  1
MATERIAL
  2
AcDbMaterial
  3
ObjectDBX Classes
 90
     1153
 91
        3
280
     0
281
     0
  0
CLASS
  1
VISUALSTYLE
  2
AcDbVisualStyle
  3
ObjectDBX Classes
 90
     4095
 91
       24
280
     0
281
     0
  0
CLASS
  1
SCALE
  2
AcDbScale
  3
ObjectDBX Classes
 90
     1153
 91
       17
280
     0
281
     0
  0
CLASS
  1
TABLESTYLE
  2
AcDbTableStyle
  3
ObjectDBX Classes
 90
     4095
 91
        1
280
     0
281
     0
  0
CLASS
  1
MLEADERSTYLE
  2
AcDbMLeaderStyle
  3
ACDB_MLEADERSTYLE_CLASS
 90
     4095
 91
        1
280
     0
281
     0
  0
CLASS
  1
ACDBSECTIONVIEWSTYLE
  2
AcDbSectionViewStyle
  3
ObjectDBX Classes
 90
     1025
 91
        1
280
     0
281
     0
  0
CLASS
  1
ACDBDETAILVIEWSTYLE
  2
AcDbDetailViewStyle
  3
ObjectDBX Classes
 90
     1025
 91
        1
280
     0
281
     0
  0
CLASS
  1
DICTIONARYVAR
  2
AcDbDictionaryVar
  3
ObjectDBX Classes
 90
        0
 91
        5
280
     0
281
     0
  0
CLASS
  1
CELLSTYLEMAP
  2
AcDbCellStyleMap
  3
ObjectDBX Classes
 90
     1152
 91
        1
280
     0
281
     0
  0
ENDSEC
  0
SECTION
  2
TABLES
  0
TABLE
  2
VPORT
  5
8
330
0
100
AcDbSymbolTable
 70
     1
1001
ACAD
1000
DbSaveVer
1071
      247
  0
VPORT
  5
57
330
8
100
AcDbSymbolTableRecord
100
AcDbViewportTableRecord
  2
*Active
 70
     0
 10
0.0
 20
0.0
 11
1.0
 21
1.0
 12
500.0
 22
500.0
 13
0.0
 23
0.0
 14
1.0
 24
1.0
 15
0.0
 25
0.0
 16
0.0
 26
0.0
 36
1.0
 17
0.0
 27
0.0
 37
0.0
 40
12.0
 41
1.0
 42
50.0
 43
0.0
 44
0.0
 50
0.0
 51
0.0
 71
     0
 72
   100
 73
     1
 74
     1
 75
     0
 76
     0
 77
     0
 78
     0
281
     0
 65
     1
110
0.0
120
0.0
130
0.0
111
1.0
121
0.0
131
0.0
112
0.0
122
1.0
132
0.0
 79
     0
146
0.0
 60
     3
 61
     5
292
     1
282
     1
141
0.0
142
0.0
 63
   250
421
  3355443
  0
ENDTAB
  0
TABLE
  2
LTYPE
  5
5
330
0
100
AcDbSymbolTable
 70
     1
  0
LTYPE
  5
5B
330
5
100
AcDbSymbolTableRecord
100
AcDbLinetypeTableRecord
  2
ByBlock
 70
     0
  3

 72
    65
 73
     0
 40
0.0
  0
LTYPE
  5
5C
330
5
100
AcDbSymbolTableRecord
100
AcDbLinetypeTableRecord
  2
ByLayer
 70
     0
  3

 72
    65
 73
     0
 40
0.0
  0
LTYPE
  5
5D
330
5
100
AcDbSymbolTableRecord
100
AcDbLinetypeTableRecord
  2
Continuous
 70
     0
  3
Solid line
 72
    65
 73
     0
 40
0.0
  0
ENDTAB
  0
TABLE
  2
LAYER
  5
2
330
0
100
AcDbSymbolTable
 70
     2
  0
LAYER
  5
54
330
2
100
AcDbSymbolTableRecord
100
AcDbLayerTableRecord
  2
0
 70
     0
 62
     7
  6
Continuous
370
    -3
390
F
347
21
348
0
  0
LAYER
  5
7A
330
2
100
AcDbSymbolTableRecord
100
AcDbLayerTableRecord
  2
cat 2 v1_Sketch1
 70
     0
 62
     7
  6
Continuous
370
    -3
390
F
347
21
348
0
1001
NFusion_SketchTransform
1000
1.000000;0.000000;0.000000;0.000000;0.000000;0.000000;1.000000;0.000000;0.000000;-1.000000;0.000000;0.000000;0.000000;0.000000;0.000000;1.000000
  0
ENDTAB
  0
TABLE
  2
STYLE
  5
3
330
0
100
AcDbSymbolTable
 70
     2
  0
STYLE
  5
55
330
3
100
AcDbSymbolTableRecord
100
AcDbTextStyleTableRecord
  2
Standard
 70
     0
 40
0.0
 41
1.0
 50
0.0
 71
     0
 42
0.2
  3
txt
  4

  0
STYLE
  5
5A
330
3
100
AcDbSymbolTableRecord
100
AcDbTextStyleTableRecord
  2
Annotative
 70
     0
 40
0.0
 41
1.0
 50
0.0
 71
     0
 42
0.2
  3
txt
  4

1001
AcadAnnotative
1000
AnnotativeData
1002
{
1070
     1
1070
     1
1002
}
  0
ENDTAB
  0
TABLE
  2
VIEW
  5
6
330
0
100
AcDbSymbolTable
 70
     0
  0
ENDTAB
  0
TABLE
  2
UCS
  5
7
330
0
100
AcDbSymbolTable
 70
     0
  0
ENDTAB
  0
TABLE
  2
APPID
  5
9
330
0
100
AcDbSymbolTable
 70
     4
  0
APPID
  5
56
330
9
100
AcDbSymbolTableRecord
100
AcDbRegAppTableRecord
  2
ACAD
 70
     0
  0
APPID
  5
5E
330
9
100
AcDbSymbolTableRecord
100
AcDbRegAppTableRecord
  2
AcadAnnotative
 70
     0
  0
APPID
  5
78
330
9
100
AcDbSymbolTableRecord
100
AcDbRegAppTableRecord
  2
EDIT_IN_FUSION_ACAD_ADDIN
 70
     0
  0
APPID
  5
79
330
9
100
AcDbSymbolTableRecord
100
AcDbRegAppTableRecord
  2
NFusion_SketchTransform
 70
     0
  0
ENDTAB
  0
TABLE
  2
DIMSTYLE
  5
A
330
0
100
AcDbSymbolTable
 70
     2
100
AcDbDimStyleTable
 71
     0
  0
DIMSTYLE
105
58
330
A
100
AcDbSymbolTableRecord
100
AcDbDimStyleTableRecord
  2
Standard
 70
     0
340
55
  0
DIMSTYLE
105
59
330
A
100
AcDbSymbolTableRecord
100
AcDbDimStyleTableRecord
  2
Annotative
 70
     0
340
55
1001
AcadAnnotative
1000
AnnotativeData
1002
{
1070
     1
1070
     1
1002
}
  0
ENDTAB
  0
TABLE
  2
BLOCK_RECORD
  5
1
330
0
100
AcDbSymbolTable
 70
     1
  0
BLOCK_RECORD
  5
70
330
1
100
AcDbSymbolTableRecord
100
AcDbBlockTableRecord
  2
*Model_Space
340
73
 70
     0
280
     1
281
     0
  0
BLOCK_RECORD
  5
6C
330
1
100
AcDbSymbolTableRecord
100
AcDbBlockTableRecord
  2
*Paper_Space
340
6F
 70
     0
280
     1
281
     0
  0
BLOCK_RECORD
  5
74
330
1
100
AcDbSymbolTableRecord
100
AcDbBlockTableRecord
  2
*Paper_Space0
340
77
 70
     0
280
     1
281
     0
  0
ENDTAB
  0
ENDSEC
  0
SECTION
  2
BLOCKS
  0
BLOCK
  5
71
330
70
100
AcDbEntity
  8
0
100
AcDbBlockBegin
  2
*Model_Space
 70
     0
 10
0.0
 20
0.0
 30
0.0
  3
*Model_Space
  1

  0
ENDBLK
  5
72
330
70
100
AcDbEntity
  8
0
100
AcDbBlockEnd
  0
BLOCK
  5
6D
330
6C
100
AcDbEntity
 67
     1
  8
0
100
AcDbBlockBegin
  2
*Paper_Space
 70
     0
 10
0.0
 20
0.0
 30
0.0
  3
*Paper_Space
  1

  0
ENDBLK
  5
6E
330
6C
100
AcDbEntity
 67
     1
  8
0
100
AcDbBlockEnd
  0
BLOCK
  5
75
330
74
100
AcDbEntity
 67
     1
  8
0
100
AcDbBlockBegin
  2
*Paper_Space0
 70
     0
 10
0.0
 20
0.0
 30
0.0
  3
*Paper_Space0
  1

  0
ENDBLK
  5
76
330
74
100
AcDbEntity
 67
     1
  8
0
100
AcDbBlockEnd
  0
ENDSEC
  0
SECTION
  2
ENTITIES
  0
POINT
  5
7B
330
70
100
AcDbEntity
  8
cat 2 v1_Sketch1
100
AcDbPoint
 10
0.0
 20
0.0
 30
0.0
  0
ARC
  5
7C
330
70
100
AcDbEntity
  8
cat 2 v1_Sketch1
100
AcDbCircle
 10
-8.301864673339547
 20
10.47242542648022
 30
0.0
 40
0.4999999999999983
210
0.0
220
1.0
230
0.0
100
AcDbArc
 50
90.0
 51
197.910197056557
  0
LINE
  5
7D
330
70
100
AcDbEntity
  8
cat 2 v1_Sketch1
100
AcDbLine
 10
14.05380574543189
 20
0.0
 30
10.87848286398861
 11
14.54716001456143
 21
0.0
 31
10.87848286398861
  0
LINE
  5
7E
330
70
100
AcDbEntity
  8
cat 2 v1_Sketch1
100
AcDbLine
 10
16.3475208604618
 20
0.0
 30
2.106373965728831
 11
16.3475208604618
 21
0.0
 31
2.606373965728831
  0
LINE
  5
7F
330
70
100
AcDbEntity
  8
cat 2 v1_Sketch1
100
AcDbLine
 10
17.26381161569102
 20
0.0
 30
2.606373965805941
 11
16.3475208604618
 21
0.0
 31
2.606373965728831
  0
ARC
  5
80
330
70
100
AcDbEntity
  8
cat 2 v1_Sketch1
100
AcDbCircle
 10
-9.451596466765852
 20
0.740015222169399
 30
0.0
 40
0.4999999999999941
210
0.0
220
1.0
230
0.0
100
AcDbArc
 50
251.8954162659163
 51
359.9999999999996
  0
SPLINE
  5
81
330
70
100
AcDbEntity
  8
cat 2 v1_Sketch1
100
AcDbSpline
210
0.0
220
1.0
230
0.0
 70
    12
 71
     5
 72
    46
 73
    40
 74
     0
 42
0.000000001
 43
0.0000000001
 40
0.0088930634087896
 40
0.0088930634087896
 40
0.0088930634087896
 40
0.0088930634087896
 40
0.0088930634087896
 40
0.0088930634087896
 40
0.0285714285714286
 40
0.0571428571428571
 40
0.0857142857142858
 40
0.1142857142857143
 40
0.1428571428571428
 40
0.1714285714285714
 40
0.2
 40
0.2285714285714286
 40
0.2571428571428572
 40
0.2857142857142858
 40
0.3142857142857143
 40
0.3428571428571429
 40
0.3714285714285715
 40
0.4000000000000001
 40
0.4285714285714288
 40
0.4571428571428572
 40
0.4857142857142859
 40
0.5142857142857144
 40
0.5428571428571429
 40
0.5714285714285717
 40
0.6000000000000001
 40
0.6285714285714287
 40
0.6571428571428573
 40
0.685714285714286
 40
0.7142857142857145
 40
0.742857142857143
 40
0.7714285714285716
 40
0.8000000000000001
 40
0.8285714285714288
 40
0.8571428571428572
 40
0.8857142857142859
 40
0.9142857142857144
 40
0.9428571428571428
 40
0.9714285714285717
 40
0.9907842813757286
 40
0.9907842813757286
 40
0.9907842813757286
 40
0.9907842813757286
 40
0.9907842813757286
 40
0.9907842813757286
 10
8.419823868171729
 20
0.0
 30
6.727797133748917
 41
1.0
 10
8.475273971642454
 20
0.0
 30
6.71883528318825
 41
1.0
 10
8.609712545546074
 20
0.0
 30
6.69042811769962
 41
1.0
 10
8.817423816892631
 20
0.0
 30
6.620384083609311
 41
1.0
 10
9.084208403998371
 20
0.0
 30
6.473373730752049
 41
1.0
 10
9.369801659621732
 20
0.0
 30
6.215508432718008
 41
1.0
 10
9.58037492729532
 20
0.0
 30
5.888598165072059
 41
1.0
 10
9.672806513005649
 20
0.0
 30
5.540893702074752
 41
1.0
 10
9.640743852704034
 20
0.0
 30
5.198905249597904
 41
1.0
 10
9.510540473720478
 20
0.0
 30
4.877271892080946
 41
1.0
 10
9.33876362610281
 20
0.0
 30
4.577381745084165
 41
1.0
 10
9.190968313715401
 20
0.0
 30
4.29260200839572
 41
1.0
 10
9.124369849166644
 20
0.0
 30
4.011680844103929
 41
1.0
 10
9.171273059713222
 20
0.0
 30
3.722960810186288
 41
1.0
 10
9.316313706124269
 20
0.0
 30
3.417995807857684
 41
1.0
 10
9.497558205504105
 20
0.0
 30
3.096215036793218
 41
1.0
 10
9.635642544148975
 20
0.0
 30
2.769807798723363
 41
1.0
 10
9.65695142253319
 20
0.0
 30
2.469759782467015
 41
1.0
 10
9.516152347443927
 20
0.0
 30
2.248962806436921
 41
1.0
 10
9.226667037533708
 20
0.0
 30
2.194903620034665
 41
1.0
 10
8.857078889459373
 20
0.0
 30
2.328466209359932
 41
1.0
 10
8.498202839084694
 20
0.0
 30
2.632222051852325
 41
1.0
 10
8.237285133835463
 20
0.0
 30
3.058308777720535
 41
1.0
 10
8.132178683841715
 20
0.0
 30
3.543771763445917
 41
1.0
 10
8.178521081717676
 20
0.0
 30
4.022666207311814
 41
1.0
 10
8.301671020931717
 20
0.0
 30
4.438948334502191
 41
1.0
 10
8.399639182040306
 20
0.0
 30
4.752391997576735
 41
1.0
 10
8.383151322205986
 20
0.0
 30
4.951594881480628
 41
1.0
 10
8.200670835098147
 20
0.0
 30
5.052718329954279
 41
1.0
 10
7.908917549387485
 20
0.0
 30
5.132348436310683
 41
1.0
 10
7.589956488028445
 20
0.0
 30
5.248901492498715
 41
1.0
 10
7.309695343540791
 20
0.0
 30
5.424607892144477
 41
1.0
 10
7.124897346484818
 20
0.0
 30
5.660617001926352
 41
1.0
 10
7.071016062288347
 20
0.0
 30
5.938189809011921
 41
1.0
 10
7.155364522001452
 20
0.0
 30
6.225353272643692
 41
1.0
 10
7.347797047160294
 20
0.0
 30
6.466356142209141
 41
1.0
 10
7.563060923261229
 20
0.0
 30
6.610244295827437
 41
1.0
 10
7.745455042091792
 20
0.0
 30
6.681534682516776
 41
1.0
 10
7.868652542492972
 20
0.0
 30
6.711879982936927
 41
1.0
 10
7.919823914629065
 20
0.0
 30
6.72176067805527
 41
1.0
  0
ARC
  5
82
330
70
100
AcDbEntity
  8
cat 2 v1_Sketch1
100
AcDbCircle
 10
-12.58061316115126
 20
1.763012597903572
 30
0.0
 40
0.4999999999999965
210
0.0
220
1.0
230
0.0
100
AcDbArc
 50
180.0
 51
251.8954162659161
  0
ARC
  5
83
330
70
100
AcDbEntity
  8
cat 2 v1_Sketch1
100
AcDbCircle
 10
-15.27025660093794
 20
10.00084551511461
 30
0.0
 40
1.499999999999994
210
0.0
220
1.0
230
0.0
100
AcDbArc
 50
35.80945898672999
 51
90.0
  0
ARC
  5
84
330
70
100
AcDbEntity
  8
cat 2 v1_Sketch1
100
AcDbCircle
 10
-12.58061316115125
 20
7.352183883284933
 30
0.0
 40
0.499999999999996
210
0.0
220
1.0
230
0.0
100
AcDbArc
 50
107.910197056558
 51
180.0
  0
LINE
  5
85
330
70
100
AcDbEntity
  8
cat 2 v1_Sketch1
100
AcDbLine
 10
15.26721277532532
 20
0.0
 30
1.718020776844733
 11
14.42453942730297
 21
0.0
 31
1.231503139998867
  0
ARC
  5
86
330
70
100
AcDbEntity
  8
cat 2 v1_Sketch1
100
AcDbCircle
 10
-9.451596466765852
 20
8.363443746917051
 30
0.0
 40
0.5
210
0.0
220
1.0
230
0.0
100
AcDbArc
 50
0.0
 51
107.9101970565568
  0
LINE
  5
87
330
70
100
AcDbEntity
  8
cat 2 v1_Sketch1
100
AcDbLine
 10
17.2470944665123
 20
0.0
 30
9.654847701449835
 11
16.39372475215223
 21
0.0
 31
9.654847723283836
  0
LINE
  5
88
330
70
100
AcDbEntity
  8
cat 2 v1_Sketch1
100
AcDbLine
 10
13.87490501229321
 20
0.0
 30
10.37848285738888
 11
14.54716001456143
 21
0.0
 31
10.37848286398861
  0
SPLINE
  5
89
330
70
100
AcDbEntity
  8
cat 2 v1_Sketch1
100
AcDbSpline
210
0.0
220
1.0
230
0.0
 70
    12
 71
     5
 72
    16
 73
    10
 74
     0
 42
0.000000001
 43
0.0000000001
 40
0.0467286996836331
 40
0.0467286996836331
 40
0.0467286996836331
 40
0.0467286996836331
 40
0.0467286996836331
 40
0.0467286996836331
 40
0.2
 40
0.4
 40
0.6000000000000001
 40
0.8
 40
1.0
 40
1.0
 40
1.0
 40
1.0
 40
1.0
 40
1.0
 10
13.44824414419466
 20
0.0
 30
4.799036374084008
 41
1.0
 10
13.44582774901976
 20
0.0
 30
4.881043981741894
 41
1.0
 10
13.43762310686398
 20
0.0
 30
5.070087586532433
 41
1.0
 10
13.41548025410408
 20
0.0
 30
5.366248405563156
 41
1.0
 10
13.36812841106548
 20
0.0
 30
5.769638755914875
 41
1.0
 10
13.28794477565406
 20
0.0
 30
6.280334601354484
 41
1.0
 10
13.20957643537939
 20
0.0
 30
6.709028829298664
 41
1.0
 10
13.14661625091923
 20
0.0
 30
7.030591194508294
 41
1.0
 10
13.10290409605366
 20
0.0
 30
7.244983431359496
 41
1.0
 10
13.08061316115125
 20
0.0
 30
7.352183883284933
 41
1.0
  0
LINE
  5
8A
330
70
100
AcDbEntity
  8
cat 2 v1_Sketch1
100
AcDbLine
 10
15.01721277532532
 20
0.0
 30
2.151033478736952
 11
14.19044180559129
 21
0.0
 31
1.673697025209856
  0
LINE
  5
8B
330
70
100
AcDbEntity
  8
cat 2 v1_Sketch1
100
AcDbLine
 10
13.44848708896013
 20
0.0
 30
4.299036375510043
 11
12.9025373017823
 21
-0.0000000000000465
 31
4.299036374944936
  0
LINE
  5
8C
330
70
100
AcDbEntity
  8
cat 2 v1_Sketch1
100
AcDbLine
 10
12.73437614629689
 20
0.0
 30
7.827953727221157
 11
9.605359451911478
 21
0.0
 31
8.839213590853278
  0
LINE
  5
8D
330
70
100
AcDbEntity
  8
cat 2 v1_Sketch1
100
AcDbLine
 10
14.04361066208367
 20
0.0
 30
1.716619488670584
 11
14.80546819252227
 21
0.0
 31
0.7463867913271508
  0
LINE
  5
8E
330
70
100
AcDbEntity
  8
cat 2 v1_Sketch1
100
AcDbLine
 10
7.919823913578973
 20
0.0
 30
5.75276012514333
 11
7.91982391462906
 21
0.0
 31
6.721760678055269
  0
SPLINE
  5
8F
330
70
100
AcDbEntity
  8
cat 2 v1_Sketch1
100
AcDbSpline
210
0.0
220
1.0
230
0.0
 70
    12
 71
     5
 72
    16
 73
    10
 74
     0
 42
0.000000001
 43
0.0000000001
 40
0.094542013901459
 40
0.094542013901459
 40
0.094542013901459
 40
0.094542013901459
 40
0.094542013901459
 40
0.094542013901459
 40
0.2
 40
0.4
 40
0.6000000000000001
 40
0.8
 40
1.0
 40
1.0
 40
1.0
 40
1.0
 40
1.0
 40
1.0
 10
17.17186605098436
 20
0.0
 30
10.15484740929381
 41
1.0
 10
17.16719567762821
 20
0.0
 30
10.18181401419469
 41
1.0
 10
17.15314197207254
 20
0.0
 30
10.25846652308234
 41
1.0
 10
17.12743886983656
 20
0.0
 30
10.37853257871885
 41
1.0
 10
17.08661109377031
 20
0.0
 30
10.53239278149449
 41
1.0
 10
17.02797216225462
 20
0.0
 30
10.71261107980093
 41
1.0
 10
16.9723297521085
 20
0.0
 30
10.86122963160347
 41
1.0
 10
16.92915012780501
 20
0.0
 30
10.96868605864437
 41
1.0
 10
16.89976204827471
 20
0.0
 30
11.03865830158535
 41
1.0
 10
16.88491752941066
 20
0.0
 30
11.07322790416453
 41
1.0
  0
ARC
  5
90
330
70
100
AcDbEntity
  8
cat 2 v1_Sketch1
100
AcDbCircle
 10
-7.290604809707424
 20
7.34340873209481
 30
0.0
 40
0.4999999999999982
210
0.0
220
1.0
230
0.0
100
AcDbArc
 50
197.9101970565581
 51
270.0
  0
LINE
  5
91
330
70
100
AcDbEntity
  8
cat 2 v1_Sketch1
100
AcDbLine
 10
16.39372475215223
 20
0.0
 30
9.654847723283836
 11
16.39372475215223
 21
0.0
 31
10.15484772328383
  0
LINE
  5
92
330
70
100
AcDbEntity
  8
cat 2 v1_Sketch1
100
AcDbLine
 10
8.419823913578973
 20
0.0
 30
5.75276012514333
 11
8.419823868171729
 21
0.0
 31
6.727797133748917
  0
LINE
  5
93
330
70
100
AcDbEntity
  8
cat 2 v1_Sketch1
100
AcDbLine
 10
9.606972702308269
 20
0.0
 30
0.2647697851280091
 11
12.73598939669368
 21
0.0
 31
1.287767160862178
  0
SPLINE
  5
94
330
70
100
AcDbEntity
  8
cat 2 v1_Sketch1
100
AcDbSpline
210
1.0
220
0.0
230
0.0000000000000132
 70
    28
 71
     5
 72
    16
 73
    10
 74
     0
 42
0.000000001
 43
0.0000000001
 40
0.0
 40
0.0
 40
0.0
 40
0.0
 40
0.0
 40
0.0
 40
0.2
 40
0.4
 40
0.6000000000000001
 40
0.8
 40
1.0
 40
1.0
 40
1.0
 40
1.0
 40
1.0
 40
1.0
 10
8.951596466765863
 20
0.0
 30
0.740015222169395
 41
1.0
 10
8.951596466766449
 20
0.0
 30
0.7724346844318553
 41
1.0
 10
8.951596466767487
 20
0.0
 30
0.8372736089568007
 41
1.0
 10
8.951596466768524
 20
0.0
 30
0.9345319957443379
 41
1.0
 10
8.951596466769004
 20
0.0
 30
1.06420984479459
 41
1.0
 10
8.951596466768567
 20
0.0
 30
1.226307156107655
 41
1.0
 10
8.951596466767703
 20
0.0
 30
1.355985005158257
 41
1.0
 10
8.951596466766844
 20
0.0
 30
1.453243391946277
 41
1.0
 10
8.951596466766194
 20
0.0
 30
1.518082316471645
 41
1.0
 10
8.951596466765852
 20
0.0
 30
1.55050177873434
 41
1.0
  0
SPLINE
  5
95
330
70
100
AcDbEntity
  8
cat 2 v1_Sketch1
100
AcDbSpline
210
1.0
220
0.0
230
0.0000000000000044
 70
    28
 71
     5
 72
    16
 73
    10
 74
     0
 42
0.000000001
 43
0.0000000001
 40
0.0
 40
0.0
 40
0.0
 40
0.0
 40
0.0
 40
0.0
 40
0.2
 40
0.4
 40
0.6000000000000001
 40
0.8
 40
1.0
 40
1.0
 40
1.0
 40
1.0
 40
1.0
 40
1.0
 10
8.951596466765852
 20
0.0
 30
8.363443746917051
 41
1.0
 10
8.951596466767274
 20
0.0
 30
8.330926068188391
 41
1.0
 10
8.951596466769753
 20
0.0
 30
8.265890710731467
 41
1.0
 10
8.951596466772244
 20
0.0
 30
8.16833767454729
 41
1.0
 10
8.951596466773423
 20
0.0
 30
8.038266959637189
 41
1.0
 10
8.951596466772382
 20
0.0
 30
7.875678566001893
 41
1.0
 10
8.951596466770304
 20
0.0
 30
7.745607851094611
 41
1.0
 10
8.95159646676824
 20
0.0
 30
7.648054814914392
 41
1.0
 10
8.951596466766673
 20
0.0
 30
7.583019457460977
 41
1.0
 10
8.951596466765856
 20
0.0
 30
7.550501778734286
 41
1.0
  0
LINE
  5
96
330
70
100
AcDbEntity
  8
cat 2 v1_Sketch1
100
AcDbLine
 10
7.919823913578973
 20
0.0
 30
5.75276012514333
 11
8.419823913578973
 21
0.0
 31
5.75276012514333
  0
LINE
  5
97
330
70
100
AcDbEntity
  8
cat 2 v1_Sketch1
100
AcDbLine
 10
17.17186605098436
 20
0.0
 30
10.15484740929381
 11
16.39372475215223
 21
0.0
 31
10.15484772328383
  0
LINE
  5
98
330
70
100
AcDbEntity
  8
cat 2 v1_Sketch1
100
AcDbLine
 10
16.39018448042826
 20
0.0
 30
11.5008455151146
 11
15.27025660093794
 21
0.0
 31
11.5008455151146
  0
ARC
  5
99
330
70
100
AcDbEntity
  8
cat 2 v1_Sketch1
100
AcDbCircle
 10
-16.39018448042826
 20
11.0008455151146
 30
0.0
 40
0.4999999999999983
210
0.0
220
1.0
230
0.0
100
AcDbArc
 50
90.0
 51
171.6763417493599
  0
LINE
  5
9A
330
70
100
AcDbEntity
  8
cat 2 v1_Sketch1
100
AcDbLine
 10
17.22276811284754
 20
0.0
 30
2.106374021464252
 11
16.3475208604618
 21
0.0
 31
2.106373965728831
  0
SPLINE
  5
9B
330
70
100
AcDbEntity
  8
cat 2 v1_Sketch1
100
AcDbSpline
210
0.0
220
1.0
230
0.0
 70
    12
 71
     5
 72
    16
 73
    10
 74
     0
 42
0.000000001
 43
0.0000000001
 40
0.0
 40
0.0
 40
0.0
 40
0.0
 40
0.0
 40
0.0
 40
0.2
 40
0.4
 40
0.6000000000000001
 40
0.8
 40
1.0
 40
1.0
 40
1.0
 40
1.0
 40
1.0
 40
1.0
 10
8.951596466765852
 20
0.0
 30
1.55050177873434
 41
1.0
 10
9.044872015528405
 20
0.0
 30
1.62256906916576
 41
1.0
 10
9.227554662212792
 20
0.0
 30
1.772276069944088
 41
1.0
 10
9.489978159030382
 20
0.0
 30
2.01354680231282
 41
1.0
 10
9.815062929349785
 20
0.0
 30
2.370984027658529
 41
1.0
 10
10.15983145681224
 20
0.0
 30
2.906495930405827
 41
1.0
 10
10.35533060712603
 20
0.0
 30
3.450598443598929
 41
1.0
 10
10.4340849905955
 20
0.0
 30
3.956440568305262
 41
1.0
 10
10.45159646676584
 20
0.0
 30
4.344073074141783
 41
1.0
 10
10.45159646676584
 20
0.0
 30
4.550501778734314
 41
1.0
  0
LINE
  5
9C
330
70
100
AcDbEntity
  8
cat 2 v1_Sketch1
100
AcDbLine
 10
14.54716001456143
 20
0.0
 30
10.37848286398861
 11
14.54716001456143
 21
0.0
 31
10.87848286398861
  0
LINE
  5
9D
330
70
100
AcDbEntity
  8
cat 2 v1_Sketch1
100
AcDbLine
 10
7.76637465364365
 20
0.0
 30
7.189645746949172
 11
8.777634517275773
 21
0.0
 31
10.31866244133459
  0
SPLINE
  5
9E
330
70
100
AcDbEntity
  8
cat 2 v1_Sketch1
100
AcDbSpline
210
0.0
220
1.0
230
0.0
 70
    12
 71
     5
 72
    16
 73
    10
 74
     0
 42
0.000000001
 43
0.0000000001
 40
0.0
 40
0.0
 40
0.0
 40
0.0
 40
0.0
 40
0.0
 40
0.2
 40
0.4
 40
0.6000000000000001
 40
0.8
 40
0.953094074664731
 40
0.953094074664731
 40
0.953094074664731
 40
0.953094074664731
 40
0.953094074664731
 40
0.953094074664731
 10
13.08061316115125
 20
0.0
 30
1.763012597903572
 41
1.0
 10
13.10308134162996
 20
0.0
 30
1.869361052741002
 41
1.0
 10
13.14712689133592
 20
0.0
 30
2.082068715572088
 41
1.0
 10
13.21052390572902
 20
0.0
 30
2.40116245572431
 41
1.0
 10
13.28933936881399
 20
0.0
 30
2.826689749400194
 41
1.0
 10
13.36972067605499
 20
0.0
 30
3.333812342072047
 41
1.0
 10
13.41684497498989
 20
0.0
 30
3.734716713949468
 41
1.0
 10
13.43852083400166
 20
0.0
 30
4.029308606281853
 41
1.0
 10
13.44628774747058
 20
0.0
 30
4.217448723583938
 41
1.0
 10
13.44848708896013
 20
0.0
 30
4.299036375510043
 41
1.0
  0
LINE
  5
9F
330
70
100
AcDbEntity
  8
cat 2 v1_Sketch1
100
AcDbLine
 10
13.44824414419466
 20
0.0
 30
4.799036374084008
 11
12.9025373017823
 21
-0.0000000000000142
 31
4.799036374944936
  0
LINE
  5
A0
330
70
100
AcDbEntity
  8
cat 2 v1_Sketch1
100
AcDbLine
 10
15.01721277532532
 20
0.0
 30
2.151033478736952
 11
15.26721277532532
 21
0.0
 31
1.718020776844733
  0
SPLINE
  5
A1
330
70
100
AcDbEntity
  8
cat 2 v1_Sketch1
100
AcDbSpline
210
0.0
220
0.0
230
1.0
 70
    28
 71
     5
 72
    16
 73
    10
 74
     0
 42
0.000000001
 43
0.0000000001
 40
0.0
 40
0.0
 40
0.0
 40
0.0
 40
0.0
 40
0.0
 40
0.2
 40
0.4
 40
0.6000000000000001
 40
0.8
 40
1.0
 40
1.0
 40
1.0
 40
1.0
 40
1.0
 40
1.0
 10
8.301864673339547
 20
0.0
 30
10.97242542648021
 41
1.0
 10
8.26934699461089
 20
0.0
 30
10.9724254264788
 41
1.0
 10
8.204311637153965
 20
0.0
 30
10.97242542647631
 41
1.0
 10
8.106758600969786
 20
0.0
 30
10.97242542647382
 41
1.0
 10
7.976687886059687
 20
0.0
 30
10.97242542647264
 41
1.0
 10
7.814099492424388
 20
0.0
 30
10.97242542647368
 41
1.0
 10
7.684028777517106
 20
0.0
 30
10.97242542647576
 41
1.0
 10
7.586475741336887
 20
0.0
 30
10.97242542647783
 41
1.0
 10
7.521440383883472
 20
0.0
 30
10.97242542647939
 41
1.0
 10
7.488922705156785
 20
0.0
 30
10.97242542648021
 41
1.0
  0
SPLINE
  5
A2
330
70
100
AcDbEntity
  8
cat 2 v1_Sketch1
100
AcDbSpline
210
0.0
220
1.0
230
0.0
 70
    12
 71
     5
 72
    21
 73
    15
 74
     0
 42
0.000000001
 43
0.0000000001
 40
0.0208866739435683
 40
0.0208866739435683
 40
0.0208866739435683
 40
0.0208866739435683
 40
0.0208866739435683
 40
0.0208866739435683
 40
0.1
 40
0.2
 40
0.3
 40
0.4
 40
0.5
 40
0.6
 40
0.7
 40
0.8
 40
0.9
 40
1.0
 40
1.0
 40
1.0
 40
1.0
 40
1.0
 40
1.0
 10
14.42453942730297
 20
0.0
 30
1.231503139998867
 41
1.0
 10
14.48264161369043
 20
0.0
 30
1.157509461695521
 41
1.0
 10
14.61314251218879
 20
0.0
 30
0.9971226190388703
 41
1.0
 10
14.81281321158636
 20
0.0
 30
0.7724326579626286
 41
1.0
 10
15.07607656804658
 20
0.0
 30
0.5215946578235302
 41
1.0
 10
15.39430565064886
 20
0.0
 30
0.3036282966971723
 41
1.0
 10
15.709131605494
 20
0.0
 30
0.1943516132130664
 41
1.0
 10
16.00540751062789
 20
0.0
 30
0.2119819343284019
 41
1.0
 10
16.28269178626742
 20
0.0
 30
0.359540252878888
 41
1.0
 10
16.54200542372386
 20
0.0
 30
0.6300416307482962
 41
1.0
 10
16.78482121254983
 20
0.0
 30
1.01341022912935
 41
1.0
 10
16.96701539498835
 20
0.0
 30
1.402600929560872
 41
1.0
 10
17.09731801533456
 20
0.0
 30
1.737888621420426
 41
1.0
 10
17.18141358022038
 20
0.0
 30
1.98038372111789
 41
1.0
 10
17.22276811284754
 20
0.0
 30
2.106374021464252
 41
1.0
  0
LINE
  5
A3
330
70
100
AcDbEntity
  8
cat 2 v1_Sketch1
100
AcDbLine
 10
0.2031907115504874
 20
0.0
 30
10.3170491909378
 11
1.22618808728466
 21
0.0
 31
7.188032496552387
  0
SPLINE
  5
A4
330
70
100
AcDbEntity
  8
cat 2 v1_Sketch1
100
AcDbSpline
210
0.0
220
1.0
230
0.0
 70
    12
 71
     3
 72
     8
 73
     4
 74
     0
 42
0.000000001
 43
0.0000000001
 40
0.0
 40
0.0
 40
0.0
 40
0.0
 40
1.0
 40
1.0
 40
1.0
 40
1.0
 10
6.055000073290592
 20
0.0
 30
0.2290407569919468
 41
1.0
 10
5.795708729601627
 20
0.0
 30
0.1655409184807981
 41
1.0
 10
5.486145906623925
 20
0.0
 30
0.3375200851474647
 41
1.0
 10
5.134250396268293
 20
0.0
 30
0.7343950851474652
 41
1.0
  0
SPLINE
  5
A5
330
70
100
AcDbEntity
  8
cat 2 v1_Sketch1
100
AcDbSpline
210
0.0
220
1.0
230
0.0
 70
    12
 71
     3
 72
     8
 73
     4
 74
     0
 42
0.000000001
 43
0.0000000001
 40
0.0
 40
0.0
 40
0.0
 40
0.0
 40
1.0
 40
1.0
 40
1.0
 40
1.0
 10
0.4696441302465663
 20
0.0
 30
5.248186105858728
 41
1.0
 10
0.5093316302465656
 20
0.0
 30
5.319623928836428
 41
1.0
 10
0.5992898020910486
 20
0.0
 30
5.343436267347579
 41
1.0
 10
0.6654356354243821
 20
0.0
 30
5.303748767347578
 41
1.0
  0
SPLINE
  5
A6
330
70
100
AcDbEntity
  8
cat 2 v1_Sketch1
100
AcDbSpline
210
0.0
220
1.0
230
0.0
 70
    12
 71
     3
 72
     8
 73
     4
 74
     0
 42
0.000000001
 43
0.0000000001
 40
0.0
 40
0.0
 40
0.0
 40
0.0
 40
1.0
 40
1.0
 40
1.0
 40
1.0
 10
4.292876526690251
 20
0.0
 30
3.705664788058841
 41
1.0
 10
4.340501203712548
 20
0.0
 30
3.75328946508114
 41
1.0
 10
4.393417870379215
 20
0.0
 30
3.840602449547692
 41
1.0
 10
4.388126688179101
 20
0.0
 30
3.975540111036544
 41
1.0
  0
SPLINE
  5
A7
330
70
100
AcDbEntity
  8
cat 2 v1_Sketch1
100
AcDbSpline
210
0.0
220
1.0
230
0.0
 70
    12
 71
     5
 72
    16
 73
    10
 74
     0
 42
0.000000001
 43
0.0000000001
 40
0.0
 40
0.0
 40
0.0
 40
0.0
 40
0.0
 40
0.0
 40
0.2
 40
0.4
 40
0.6000000000000001
 40
0.8
 40
1.0
 40
1.0
 40
1.0
 40
1.0
 40
1.0
 40
1.0
 10
4.488922705156802
 20
0.0
 30
9.472425426480223
 41
1.0
 10
4.695351409749333
 20
0.0
 30
9.472425426480223
 41
1.0
 10
5.082983915585893
 20
0.0
 30
9.489936902650784
 41
1.0
 10
5.588826040292449
 20
0.0
 30
9.568691286121172
 41
1.0
 10
6.13292855348574
 20
0.0
 30
9.764190436436322
 41
1.0
 10
6.668440456233099
 20
0.0
 30
10.10895896389995
 41
1.0
 10
7.025877681578656
 20
0.0
 30
10.43404373421897
 41
1.0
 10
7.267148413947237
 20
0.0
 30
10.69646723103535
 41
1.0
 10
7.416855414725434
 20
0.0
 30
10.87914987771843
 41
1.0
 10
7.488922705156785
 20
0.0
 30
10.97242542648021
 41
1.0
  0
LINE
  5
A8
330
70
100
AcDbEntity
  8
cat 2 v1_Sketch1
100
AcDbLine
 10
6.975750557757145
 20
0.0
 30
3.263811913302983
 11
6.71910440144611
 21
0.0
 31
3.351124090325279
  0
SPLINE
  5
A9
330
70
100
AcDbEntity
  8
cat 2 v1_Sketch1
100
AcDbSpline
210
0.0
220
1.0
230
0.0
 70
     8
 71
     2
 72
     6
 73
     3
 74
     0
 42
0.000000001
 43
0.0000000001
 40
0.1333159445352227
 40
0.1333159445352227
 40
0.1333159445352227
 40
1.0
 40
1.0
 40
1.0
 10
4.000000052155013
 20
0.0
 30
6.163751381554249
 10
4.819559212455301
 20
0.0
 30
6.144950765383867
 10
5.525834214068181
 20
0.0
 30
5.989019439192061
  0
LINE
  5
AA
330
70
100
AcDbEntity
  8
cat 2 v1_Sketch1
100
AcDbLine
 10
4.75000007106142
 20
0.0
 30
6.476158014897369
 11
4.750000070780515
 21
0.0
 31
7.050000105053186
  0
LINE
  5
AB
330
70
100
AcDbEntity
  8
cat 2 v1_Sketch1
100
AcDbLine
 10
6.965168193356918
 20
0.0
 30
5.052394600680911
 11
6.764085505978987
 21
0.0
 31
4.93862409032528
  0
SPLINE
  5
AC
330
70
100
AcDbEntity
  8
cat 2 v1_Sketch1
100
AcDbSpline
210
0.0
220
1.0
230
0.0
 70
    12
 71
     3
 72
     8
 73
     4
 74
     0
 42
0.000000001
 43
0.0000000001
 40
0.0
 40
0.0
 40
0.0
 40
0.0
 40
1.0
 40
1.0
 40
1.0
 40
1.0
 10
3.202792870379215
 20
0.0
 30
3.705664788058841
 41
1.0
 10
3.30333421406818
 20
0.0
 30
3.599831454725507
 41
1.0
 10
3.477959375557031
 20
0.0
 30
3.549560782881026
 41
1.0
 10
3.747834698534733
 20
0.0
 30
3.549560782881026
 41
1.0
  0
SPLINE
  5
AD
330
70
100
AcDbEntity
  8
cat 2 v1_Sketch1
100
AcDbSpline
210
0.0
220
1.0
230
0.0
 70
    12
 71
     3
 72
     8
 73
     4
 74
     0
 42
0.000000001
 43
0.0000000001
 40
0.0
 40
0.0
 40
0.0
 40
0.0
 40
1.0
 40
1.0
 40
1.0
 40
1.0
 10
7.145084537045883
 20
0.0
 30
4.451790918480797
 41
1.0
 10
7.224459537045882
 20
0.0
 30
4.451790918480797
 41
1.0
 10
7.290605370379215
 20
0.0
 30
4.388291079969648
 41
1.0
 10
7.290605370379215
 20
0.0
 30
4.306270085147464
 41
1.0
  0
LINE
  5
AE
330
70
100
AcDbEntity
  8
cat 2 v1_Sketch1
100
AcDbLine
 10
0.4246654480464517
 20
0.0
 30
3.536332423658613
 11
0.6892487813797851
 21
0.0
 31
3.628936590325279
  0
LINE
  5
AF
330
70
100
AcDbEntity
  8
cat 2 v1_Sketch1
100
AcDbLine
 10
3.792813380734846
 20
0.0
 30
4.480894439192061
 11
3.745188703712549
 21
0.0
 31
4.480894439192061
  0
SPLINE
  5
B0
330
70
100
AcDbEntity
  8
cat 2 v1_Sketch1
100
AcDbSpline
210
0.0
220
1.0
230
0.0
 70
     8
 71
     2
 72
     6
 73
     3
 74
     0
 42
0.000000001
 43
0.0000000001
 40
0.0
 40
0.0
 40
0.0
 40
0.8930914223841991
 40
0.8930914223841991
 40
0.8930914223841991
 10
1.964539156135644
 20
0.0
 30
5.989019439192061
 10
2.503296268240297
 20
0.0
 30
6.144975673050208
 10
3.500000054176767
 20
0.0
 30
6.163759210168409
  0
LINE
  5
B1
330
70
100
AcDbEntity
  8
cat 2 v1_Sketch1
100
AcDbLine
 10
4.000000052155013
 20
0.0
 30
6.163751381554249
 11
4.000000052154064
 21
0.0
 31
5.400000092387199
  0
LINE
  5
B2
330
70
100
AcDbEntity
  8
cat 2 v1_Sketch1
100
AcDbLine
 10
0.6072277865576014
 20
0.0
 30
4.160749251814131
 11
0.3452904480464521
 21
0.0
 31
4.160749251814131
  0
SPLINE
  5
B3
330
70
100
AcDbEntity
  8
cat 2 v1_Sketch1
100
AcDbSpline
210
0.0
220
1.0
230
0.0
 70
    12
 71
     3
 72
     8
 73
     4
 74
     0
 42
0.000000001
 43
0.0000000001
 40
0.0
 40
0.0
 40
0.0
 40
0.0
 40
1.0
 40
1.0
 40
1.0
 40
1.0
 10
3.747834698534733
 20
0.0
 30
3.549560782881026
 41
1.0
 10
4.017710021512435
 20
0.0
 30
3.549560782881026
 41
1.0
 10
4.189689188179102
 20
0.0
 30
3.599831454725507
 41
1.0
 10
4.292876526690251
 20
0.0
 30
3.705664788058841
 41
1.0
  0
ARC
  5
B4
330
70
100
AcDbEntity
  8
cat 2 v1_Sketch1
100
AcDbCircle
 10
-0.6784361485918801
 20
10.47242542648022
 30
0.0
 40
0.4999999999999974
210
0.0
220
1.0
230
0.0
100
AcDbArc
 50
341.8954162659163
 51
89.99999999999996
  0
LINE
  5
B5
330
70
100
AcDbEntity
  8
cat 2 v1_Sketch1
100
AcDbLine
 10
6.63179222442381
 20
0.0
 30
5.195269439192061
 11
6.824937734779442
 21
0.0
 31
5.303748767347578
  0
SPLINE
  5
B6
330
70
100
AcDbEntity
  8
cat 2 v1_Sketch1
100
AcDbSpline
210
0.0
220
1.0
230
0.0
 70
    12
 71
     3
 72
     8
 73
     4
 74
     0
 42
0.000000001
 43
0.0000000001
 40
0.0
 40
0.0
 40
0.0
 40
0.0
 40
1.0
 40
1.0
 40
1.0
 40
1.0
 10
6.764085505978987
 20
0.0
 30
4.93862409032528
 41
1.0
 10
6.827586151934392
 20
0.0
 30
4.782520085147464
 41
1.0
 10
6.864626849667952
 20
0.0
 30
4.618478095503096
 41
1.0
 10
6.877856016334619
 20
0.0
 30
4.451790918480797
 41
1.0
  0
LINE
  5
B7
330
70
100
AcDbEntity
  8
cat 2 v1_Sketch1
100
AcDbLine
 10
4.750000070780515
 20
0.0
 30
7.050000105053186
 11
4.250000063329935
 21
0.0
 31
7.050000105053186
  0
LINE
  5
B8
330
70
100
AcDbEntity
  8
cat 2 v1_Sketch1
100
AcDbLine
 10
3.500000052154064
 20
0.0
 30
5.400000092387199
 11
3.500000054176766
 21
0.0
 31
6.163759210168409
  0
SPLINE
  5
B9
330
70
100
AcDbEntity
  8
cat 2 v1_Sketch1
100
AcDbSpline
210
0.0
220
1.0
230
0.0
 70
    12
 71
     3
 72
     8
 73
     4
 74
     0
 42
0.000000001
 43
0.0000000001
 40
0.0
 40
0.0
 40
0.0
 40
0.0
 40
1.0
 40
1.0
 40
1.0
 40
1.0
 10
0.9458949376908199
 20
0.0
 30
1.080999009580854
 41
1.0
 10
0.7765617658463384
 20
0.0
 30
2.21606175181413
 41
1.0
 10
0.8294784325130049
 20
0.0
 30
3.195020085147465
 41
1.0
 10
0.7739157710241537
 20
0.0
 30
3.351124090325279
 41
1.0
  0
LINE
  5
BA
330
70
100
AcDbEntity
  8
cat 2 v1_Sketch1
100
AcDbLine
 10
0.3452904480464518
 20
0.0
 30
4.451790918480797
 11
0.6125197762019692
 21
0.0
 31
4.451790918480797
  0
SPLINE
  5
BB
330
70
100
AcDbEntity
  8
cat 2 v1_Sketch1
100
AcDbSpline
210
0.0
220
1.0
230
0.0
 70
    12
 71
     3
 72
     8
 73
     4
 74
     0
 42
0.000000001
 43
0.0000000001
 40
0.0
 40
0.0
 40
0.0
 40
0.0
 40
1.0
 40
1.0
 40
1.0
 40
1.0
 10
6.824937734779443
 20
0.0
 30
5.303748767347578
 41
1.0
 10
6.893728755490706
 20
0.0
 30
5.343436267347579
 41
1.0
 10
6.981042547401513
 20
0.0
 30
5.319623928836428
 41
1.0
 10
7.020730047401514
 20
0.0
 30
5.248186105858728
 41
1.0
  0
SPLINE
  5
BC
330
70
100
AcDbEntity
  8
cat 2 v1_Sketch1
100
AcDbSpline
210
0.0
220
1.0
230
0.0
 70
    12
 71
     5
 72
    16
 73
    10
 74
     0
 42
0.000000001
 43
0.0000000001
 40
0.0
 40
0.0
 40
0.0
 40
0.0
 40
0.0
 40
0.0
 40
0.2
 40
0.4
 40
0.6000000000000001
 40
0.8
 40
1.0
 40
1.0
 40
1.0
 40
1.0
 40
1.0
 40
1.0
 10
1.488922705156821
 20
0.0
 30
10.97242542648022
 41
1.0
 10
1.560989995588242
 20
0.0
 30
10.87914987771767
 41
1.0
 10
1.710696996366571
 20
0.0
 30
10.69646723103328
 41
1.0
 10
1.951967728735302
 20
0.0
 30
10.43404373421569
 41
1.0
 10
2.309404954081012
 20
0.0
 30
10.10895896389628
 41
1.0
 10
2.844916856828312
 20
0.0
 30
9.764190436433825
 41
1.0
 10
3.389019370021418
 20
0.0
 30
9.568691286120037
 41
1.0
 10
3.89486149472775
 20
0.0
 30
9.489936902650574
 41
1.0
 10
4.28249400056427
 20
0.0
 30
9.472425426480223
 41
1.0
 10
4.488922705156802
 20
0.0
 30
9.472425426480223
 41
1.0
  0
SPLINE
  5
BD
330
70
100
AcDbEntity
  8
cat 2 v1_Sketch1
100
AcDbSpline
210
0.0
220
1.0
230
0.0
 70
    12
 71
     5
 72
    16
 73
    10
 74
     0
 42
0.000000001
 43
0.0000000001
 40
0.0514171194036067
 40
0.0514171194036067
 40
0.0514171194036067
 40
0.0514171194036067
 40
0.0514171194036067
 40
0.0514171194036067
 40
0.2
 40
0.4
 40
0.6000000000000001
 40
0.8
 40
1.0
 40
1.0
 40
1.0
 40
1.0
 40
1.0
 40
1.0
 10
4.75000007106142
 20
0.0
 30
6.476158014897369
 41
1.0
 10
4.829500495844103
 20
0.0
 30
6.478635957491026
 41
1.0
 10
5.016037538346592
 20
0.0
 30
6.486964421663225
 41
1.0
 10
5.309690804595414
 20
0.0
 30
6.509131702493655
 41
1.0
 10
5.710571408507946
 20
0.0
 30
6.556287844769031
 41
1.0
 10
6.218755527776973
 20
0.0
 30
6.636077117591998
 41
1.0
 10
6.64744975572116
 20
0.0
 30
6.71444545786667
 41
1.0
 10
6.969012120930784
 20
0.0
 30
6.777405642326836
 41
1.0
 10
7.183404357781991
 20
0.0
 30
6.821117797192401
 41
1.0
 10
7.290604809707424
 20
0.0
 30
6.843408732094813
 41
1.0
  0
SPLINE
  5
BE
330
70
100
AcDbEntity
  8
cat 2 v1_Sketch1
100
AcDbSpline
210
0.0
220
1.0
230
0.0
 70
    12
 71
     3
 72
     8
 73
     4
 74
     0
 42
0.000000001
 43
0.0000000001
 40
0.0
 40
0.0
 40
0.0
 40
0.0
 40
1.0
 40
1.0
 40
1.0
 40
1.0
 10
0.5252067917354168
 20
0.0
 30
5.052394600680911
 41
1.0
 10
0.4564149635798991
 20
0.0
 30
5.092082100680912
 41
1.0
 10
0.429956630246566
 20
0.0
 30
5.17939427770321
 41
1.0
 10
0.4696441302465663
 20
0.0
 30
5.248186105858728
 41
1.0
  0
SPLINE
  5
BF
330
70
100
AcDbEntity
  8
cat 2 v1_Sketch1
100
AcDbSpline
210
0.0
220
1.0
230
0.0
 70
    12
 71
     3
 72
     8
 73
     4
 74
     0
 42
0.000000001
 43
0.0000000001
 40
0.0
 40
0.0
 40
0.0
 40
0.0
 40
1.0
 40
1.0
 40
1.0
 40
1.0
 10
0.5172696147131184
 20
0.0
 30
3.263811913302983
 41
1.0
 10
0.4405406095353026
 20
0.0
 30
3.237353579969648
 41
1.0
 10
0.3585196147131189
 20
0.0
 30
3.277041079969648
 41
1.0
 10
0.3347072762019696
 20
0.0
 30
3.353770085147463
 41
1.0
  0
SPLINE
  5
C0
330
70
100
AcDbEntity
  8
cat 2 v1_Sketch1
100
AcDbSpline
210
0.0
220
1.0
230
0.0
 70
    12
 71
     3
 72
     8
 73
     4
 74
     0
 42
0.000000001
 43
0.0000000001
 40
0.0
 40
0.0
 40
0.0
 40
0.0
 40
1.0
 40
1.0
 40
1.0
 40
1.0
 10
0.6892487813797851
 20
0.0
 30
3.628936590325281
 41
1.0
 10
0.6442692917354176
 20
0.0
 30
3.803561751814131
 41
1.0
 10
0.6151657710241542
 20
0.0
 30
3.983478095503095
 41
1.0
 10
0.6072277865576014
 20
0.0
 30
4.160749251814131
 41
1.0
  0
SPLINE
  5
C1
330
70
100
AcDbEntity
  8
cat 2 v1_Sketch1
100
AcDbSpline
210
0.0
220
1.0
230
0.0
 70
    12
 71
     3
 72
     8
 73
     4
 74
     0
 42
0.000000001
 43
0.0000000001
 40
0.0
 40
0.0
 40
0.0
 40
0.0
 40
1.0
 40
1.0
 40
1.0
 40
1.0
 10
0.3452904480464518
 20
0.0
 30
4.160749251814131
 41
1.0
 10
0.2659154480464521
 20
0.0
 30
4.160749251814131
 41
1.0
 10
0.1997696147131185
 20
0.0
 30
4.22424909032528
 41
1.0
 10
0.1997696147131185
 20
0.0
 30
4.306270085147464
 41
1.0
  0
SPLINE
  5
C2
330
70
100
AcDbEntity
  8
cat 2 v1_Sketch1
100
AcDbSpline
210
0.0
220
1.0
230
0.0
 70
    12
 71
     5
 72
    16
 73
    10
 74
     0
 42
0.000000001
 43
0.0000000001
 40
0.0
 40
0.0
 40
0.0
 40
0.0
 40
0.0
 40
0.0
 40
0.2
 40
0.4
 40
0.6000000000000001
 40
0.8
 40
0.9578011649434371
 40
0.9578011649434371
 40
0.9578011649434371
 40
0.9578011649434371
 40
0.9578011649434371
 40
0.9578011649434371
 10
1.701433524326052
 20
0.0
 30
6.843408732094811
 41
1.0
 10
1.807781979163488
 20
0.0
 30
6.8209405516161
 41
1.0
 10
2.020489641994574
 20
0.0
 30
6.776895001910139
 41
1.0
 10
2.339583382146793
 20
0.0
 30
6.713497987517042
 41
1.0
 10
2.765110675822678
 20
0.0
 30
6.634682524432072
 41
1.0
 10
3.274737818558932
 20
0.0
 30
6.553904234269915
 41
1.0
 10
3.678149221382553
 20
0.0
 30
6.506588473228984
 41
1.0
 10
3.975250912642957
 20
0.0
 30
6.484950456819061
 41
1.0
 10
4.165902097295532
 20
0.0
 30
6.477326464404336
 41
1.0
 10
4.250000064568497
 20
0.0
 30
6.475207746604085
 41
1.0
  0
SPLINE
  5
C3
330
70
100
AcDbEntity
  8
cat 2 v1_Sketch1
100
AcDbSpline
210
0.0
220
1.0
230
0.0
 70
    12
 71
     3
 72
     8
 73
     4
 74
     0
 42
0.000000001
 43
0.0000000001
 40
0.0
 40
0.0
 40
0.0
 40
0.0
 40
1.0
 40
1.0
 40
1.0
 40
1.0
 10
5.525834214068181
 20
0.0
 30
5.989019439192061
 41
1.0
 10
6.036479724423812
 20
0.0
 30
5.817040272525393
 41
1.0
 10
6.406896391090477
 20
0.0
 30
5.549810944369876
 41
1.0
 10
6.63179222442381
 20
0.0
 30
5.195269439192061
 41
1.0
  0
LINE
  5
C4
330
70
100
AcDbEntity
  8
cat 2 v1_Sketch1
100
AcDbLine
 10
0.6654356354243821
 20
0.0
 30
5.303748767347578
 11
0.8585811457800128
 21
0.0
 31
5.195269439192061
  0
SPLINE
  5
C5
330
70
100
AcDbEntity
  8
cat 2 v1_Sketch1
100
AcDbSpline
210
0.0
220
1.0
230
0.0
 70
    12
 71
     3
 72
     8
 73
     4
 74
     0
 42
0.000000001
 43
0.0000000001
 40
0.0
 40
0.0
 40
0.0
 40
0.0
 40
1.0
 40
1.0
 40
1.0
 40
1.0
 10
6.883146391090479
 20
0.0
 30
4.160749251814131
 41
1.0
 10
6.875209214068181
 20
0.0
 30
3.983478095503095
 41
1.0
 10
6.846104078468408
 20
0.0
 30
3.806207746636316
 41
1.0
 10
6.801126203712549
 20
0.0
 30
3.628936590325281
 41
1.0
  0
SPLINE
  5
C6
330
70
100
AcDbEntity
  8
cat 2 v1_Sketch1
100
AcDbSpline
210
0.0
220
1.0
230
0.0
 70
    12
 71
     3
 72
     8
 73
     4
 74
     0
 42
0.000000001
 43
0.0000000001
 40
0.0
 40
0.0
 40
0.0
 40
0.0
 40
1.0
 40
1.0
 40
1.0
 40
1.0
 10
7.290605370379215
 20
0.0
 30
4.306270085147464
 41
1.0
 10
7.290605370379215
 20
0.0
 30
4.226895085147464
 41
1.0
 10
7.227104724423812
 20
0.0
 30
4.160749251814131
 41
1.0
 10
7.145084537045883
 20
0.0
 30
4.160749251814131
 41
1.0
  0
LINE
  5
C7
330
70
100
AcDbEntity
  8
cat 2 v1_Sketch1
100
AcDbLine
 10
0.7739157710241536
 20
0.0
 30
3.351124090325279
 11
0.5172696147131184
 21
0.0
 31
3.263811913302983
  0
SPLINE
  5
C8
330
70
100
AcDbEntity
  8
cat 2 v1_Sketch1
100
AcDbSpline
210
0.0
220
1.0
230
0.0
 70
    12
 71
     3
 72
     8
 73
     4
 74
     0
 42
0.000000001
 43
0.0000000001
 40
0.0
 40
0.0
 40
0.0
 40
0.0
 40
1.0
 40
1.0
 40
1.0
 40
1.0
 10
5.134250396268293
 20
0.0
 30
0.7343950851474652
 41
1.0
 10
4.975500396268293
 20
0.0
 30
0.9143118325585566
 41
1.0
 10
4.843208729601626
 20
0.0
 30
1.096874171069705
 41
1.0
 10
4.771770906623925
 20
0.0
 30
1.205353499225222
 41
1.0
  0
SPLINE
  5
C9
330
70
100
AcDbEntity
  8
cat 2 v1_Sketch1
100
AcDbSpline
210
0.0
220
1.0
230
0.0
 70
    12
 71
     3
 72
     8
 73
     4
 74
     0
 42
0.000000001
 43
0.0000000001
 40
0.0
 40
0.0
 40
0.0
 40
0.0
 40
1.0
 40
1.0
 40
1.0
 40
1.0
 10
1.440666094001854
 20
0.0
 30
0.2290407569919468
 41
1.0
 10
1.178728755490705
 20
0.0
 30
0.2925405955030964
 41
1.0
 10
1.02262475031289
 20
0.0
 30
0.5703530955030961
 41
1.0
 10
0.9458949376908199
 20
0.0
 30
1.080999009580854
 41
1.0
  0
SPLINE
  5
CA
330
70
100
AcDbEntity
  8
cat 2 v1_Sketch1
100
AcDbSpline
210
0.0
220
1.0
230
0.0
 70
    12
 71
     3
 72
     8
 73
     4
 74
     0
 42
0.000000001
 43
0.0000000001
 40
0.0
 40
0.0
 40
0.0
 40
0.0
 40
1.0
 40
1.0
 40
1.0
 40
1.0
 10
7.158313703712549
 20
0.0
 30
3.353770085147463
 41
1.0
 10
7.131855370379215
 20
0.0
 30
3.279687074791833
 41
1.0
 10
7.049835183001285
 20
0.0
 30
3.237353579969648
 41
1.0
 10
6.975750557757145
 20
0.0
 30
3.263811913302983
 41
1.0
  0
LINE
  5
CB
330
70
100
AcDbEntity
  8
cat 2 v1_Sketch1
100
AcDbLine
 10
0.7262902865576013
 20
0.0
 30
4.93862409032528
 11
0.5252067917354168
 21
0.0
 31
5.052394600680911
  0
SPLINE
  5
CC
330
70
100
AcDbEntity
  8
cat 2 v1_Sketch1
100
AcDbSpline
210
0.0
220
1.0
230
0.0
 70
    12
 71
     3
 72
     8
 73
     4
 74
     0
 42
0.000000001
 43
0.0000000001
 40
0.0
 40
0.0
 40
0.0
 40
0.0
 40
1.0
 40
1.0
 40
1.0
 40
1.0
 10
4.388126688179101
 20
0.0
 30
3.975540111036544
 41
1.0
 10
4.37489671406818
 20
0.0
 30
4.208373928836428
 41
1.0
 10
4.01770921406818
 20
0.0
 30
4.412103418480797
 41
1.0
 10
3.792813380734846
 20
0.0
 30
4.480894439192061
 41
1.0
  0
LINE
  5
CD
330
70
100
AcDbEntity
  8
cat 2 v1_Sketch1
100
AcDbLine
 10
6.801126203712549
 20
0.0
 30
3.628936590325281
 11
7.068354724423812
 21
0.0
 31
3.536332423658613
  0
SPLINE
  5
CE
330
70
100
AcDbEntity
  8
cat 2 v1_Sketch1
100
AcDbSpline
210
0.0
220
1.0
230
0.0
 70
    12
 71
     3
 72
     8
 73
     4
 74
     0
 42
0.000000001
 43
0.0000000001
 40
0.0
 40
0.0
 40
0.0
 40
0.0
 40
1.0
 40
1.0
 40
1.0
 40
1.0
 10
3.747833083646223
 20
0.0
 30
1.046603499225223
 41
1.0
 10
3.369479239957258
 20
0.0
 30
1.046603499225223
 41
1.0
 10
3.033458083646222
 20
0.0
 30
1.096874171069705
 41
1.0
 10
2.723895260668522
 20
0.0
 30
1.205353499225222
 41
1.0
  0
SPLINE
  5
CF
330
70
100
AcDbEntity
  8
cat 2 v1_Sketch1
100
AcDbSpline
210
0.0
220
1.0
230
0.0
 70
    12
 71
     3
 72
     8
 73
     4
 74
     0
 42
0.000000001
 43
0.0000000001
 40
0.0
 40
0.0
 40
0.0
 40
0.0
 40
1.0
 40
1.0
 40
1.0
 40
1.0
 10
6.71910440144611
 20
0.0
 30
3.351124090325279
 41
1.0
 10
6.663542547401513
 20
0.0
 30
3.195020085147465
 41
1.0
 10
6.80377139109048
 20
0.0
 30
0.3613324236586139
 41
1.0
 10
6.055000073290592
 20
0.0
 30
0.2290407569919468
 41
1.0
  0
SPLINE
  5
D0
330
70
100
AcDbEntity
  8
cat 2 v1_Sketch1
100
AcDbSpline
210
0.0
220
1.0
230
0.0
 70
    12
 71
     3
 72
     8
 73
     4
 74
     0
 42
0.000000001
 43
0.0000000001
 40
0.0
 40
0.0
 40
0.0
 40
0.0
 40
1.0
 40
1.0
 40
1.0
 40
1.0
 10
0.8585811457800128
 20
0.0
 30
5.195269439192061
 41
1.0
 10
1.08612297393553
 20
0.0
 30
5.549810944369876
 41
1.0
 10
1.456539640602198
 20
0.0
 30
5.817040272525393
 41
1.0
 10
1.964539156135644
 20
0.0
 30
5.989019439192061
 41
1.0
  0
LINE
  5
D1
330
70
100
AcDbEntity
  8
cat 2 v1_Sketch1
100
AcDbLine
 10
17.36370055889113
 20
0.0
 30
3.381161663267416
 11
17.16392267249091
 21
0.0
 31
1.831586268344467
  0
SPLINE
  5
D2
330
70
100
AcDbEntity
  8
cat 2 v1_Sketch1
100
AcDbSpline
210
0.0
220
1.0
230
0.0
 70
    12
 71
     5
 72
    21
 73
    15
 74
     0
 42
0.000000001
 43
0.0000000001
 40
0.0
 40
0.0
 40
0.0
 40
0.0
 40
0.0
 40
0.0
 40
0.1
 40
0.2
 40
0.3
 40
0.4
 40
0.5
 40
0.6
 40
0.7
 40
0.8
 40
0.9
 40
1.0
 40
1.0
 40
1.0
 40
1.0
 40
1.0
 40
1.0
 10
13.87490501229321
 20
0.0
 30
10.37848285738888
 41
1.0
 10
13.86863952870499
 20
0.0
 30
10.2469991493516
 41
1.0
 10
13.85727135811299
 20
0.0
 30
9.980091829218554
 41
1.0
 10
13.84370763343748
 20
0.0
 30
9.567910657537284
 41
1.0
 10
13.83271329246297
 20
0.0
 30
8.994310594009391
 41
1.0
 10
13.83152499111921
 20
0.0
 30
8.234771674916343
 41
1.0
 10
13.84378001887253
 20
0.0
 30
7.429682719326138
 41
1.0
 10
13.87018301193322
 20
0.0
 30
6.576656208132624
 41
1.0
 10
13.91046571391006
 20
0.0
 30
5.676601074554966
 41
1.0
 10
13.96353655933921
 20
0.0
 30
4.733215870217335
 41
1.0
 10
14.0281587554683
 20
0.0
 30
3.750691220413154
 41
1.0
 10
14.08822159395693
 20
0.0
 30
2.936328091812397
 41
1.0
 10
14.13765424678462
 20
0.0
 30
2.310696273042302
 41
1.0
 10
14.17252642089675
 20
0.0
 30
1.887112777387617
 41
1.0
 10
14.19044180559129
 20
0.0
 30
1.673697025209856
 41
1.0
  0
ARC
  5
D3
330
70
100
AcDbEntity
  8
cat 2 v1_Sketch1
100
AcDbCircle
 10
-1.701433524326052
 20
7.343408732094808
 30
0.0
 40
0.4999999999999974
210
0.0
220
1.0
230
0.0
100
AcDbArc
 50
270.0
 51
341.8954162659158
  0
SPLINE
  5
D4
330
70
100
AcDbEntity
  8
cat 2 v1_Sketch1
100
AcDbSpline
210
0.0
220
1.0
230
0.0
 70
    12
 71
     5
 72
    21
 73
    15
 74
     0
 42
0.000000001
 43
0.0000000001
 40
0.0
 40
0.0
 40
0.0
 40
0.0
 40
0.0
 40
0.0
 40
0.1
 40
0.2
 40
0.3
 40
0.4
 40
0.5
 40
0.6
 40
0.7
 40
0.8
 40
0.9
 40
0.9851566619274247
 40
0.9851566619274247
 40
0.9851566619274247
 40
0.9851566619274247
 40
0.9851566619274247
 40
0.9851566619274247
 10
17.2470944665123
 20
0.0
 30
9.654847701449835
 41
1.0
 10
17.27070635202135
 20
0.0
 30
9.538203562485598
 41
1.0
 10
17.31577994849294
 20
0.0
 30
9.302471600243409
 41
1.0
 10
17.37693958859505
 20
0.0
 30
8.941542341445209
 41
1.0
 10
17.44537401334032
 20
0.0
 30
8.445401745414114
 41
1.0
 10
17.50766531084084
 20
0.0
 30
7.798800287010399
 41
1.0
 10
17.54494643831482
 20
0.0
 30
7.123774643103757
 41
1.0
 10
17.55568850446518
 20
0.0
 30
6.418587220955783
 41
1.0
 10
17.53997166745244
 20
0.0
 30
5.683329120724753
 41
1.0
 10
17.49966106613862
 20
0.0
 30
4.920120082219398
 41
1.0
 10
17.43886086582189
 20
0.0
 30
4.154921608007839
 41
1.0
 10
17.37553851863163
 20
0.0
 30
3.530335868040268
 41
1.0
 10
17.3209288352447
 20
0.0
 30
3.059131281818616
 41
1.0
 10
17.28226816064944
 20
0.0
 30
2.749531992243186
 41
1.0
 10
17.26381161569102
 20
0.0
 30
2.606373965805942
 41
1.0
  0
LINE
  5
D5
330
70
100
AcDbEntity
  8
cat 2 v1_Sketch1
100
AcDbLine
 10
4.250000063329935
 20
0.0
 30
7.050000105053186
 11
4.250000064568497
 21
0.0
 31
6.475207746604085
  0
SPLINE
  5
D6
330
70
100
AcDbEntity
  8
cat 2 v1_Sketch1
100
AcDbSpline
210
0.0
220
1.0
230
0.0
 70
    12
 71
     3
 72
     8
 73
     4
 74
     0
 42
0.000000001
 43
0.0000000001
 40
0.0
 40
0.0
 40
0.0
 40
0.0
 40
1.0
 40
1.0
 40
1.0
 40
1.0
 10
2.361415771024153
 20
0.0
 30
0.7343950851474652
 41
1.0
 10
2.00952026066852
 20
0.0
 30
0.3348740903252807
 41
1.0
 10
1.697311442868636
 20
0.0
 30
0.1655409184807981
 41
1.0
 10
1.440666094001854
 20
0.0
 30
0.2290407569919468
 41
1.0
  0
SPLINE
  5
D7
330
70
100
AcDbEntity
  8
cat 2 v1_Sketch1
100
AcDbSpline
210
0.0
220
1.0
230
0.0
 70
    12
 71
     3
 72
     8
 73
     4
 74
     0
 42
0.000000001
 43
0.0000000001
 40
0.0
 40
0.0
 40
0.0
 40
0.0
 40
1.0
 40
1.0
 40
1.0
 40
1.0
 10
0.1997696147131185
 20
0.0
 30
4.306270085147464
 41
1.0
 10
0.1997696147131185
 20
0.0
 30
4.385645085147466
 41
1.0
 10
0.2632694532242672
 20
0.0
 30
4.451790918480797
 41
1.0
 10
0.3452904480464518
 20
0.0
 30
4.451790918480797
 41
1.0
  0
SPLINE
  5
D8
330
70
100
AcDbEntity
  8
cat 2 v1_Sketch1
100
AcDbSpline
210
0.0
220
1.0
230
0.0
 70
    12
 71
     3
 72
     8
 73
     4
 74
     0
 42
0.000000001
 43
0.0000000001
 40
0.0
 40
0.0
 40
0.0
 40
0.0
 40
1.0
 40
1.0
 40
1.0
 40
1.0
 10
4.771770906623925
 20
0.0
 30
1.205353499225222
 41
1.0
 10
4.464854078468409
 20
0.0
 30
1.099520165891889
 41
1.0
 10
4.126187734779443
 20
0.0
 30
1.046603499225223
 41
1.0
 10
3.747833083646223
 20
0.0
 30
1.046603499225223
 41
1.0
  0
SPLINE
  5
D9
330
70
100
AcDbEntity
  8
cat 2 v1_Sketch1
100
AcDbSpline
210
0.0
220
1.0
230
0.0
 70
    12
 71
     3
 72
     8
 73
     4
 74
     0
 42
0.000000001
 43
0.0000000001
 40
0.0
 40
0.0
 40
0.0
 40
0.0
 40
1.0
 40
1.0
 40
1.0
 40
1.0
 10
2.723895260668522
 20
0.0
 30
1.205353499225222
 41
1.0
 10
2.649812250312891
 20
0.0
 30
1.096874171069705
 41
1.0
 10
2.520165771024153
 20
0.0
 30
0.9116658377363727
 41
1.0
 10
2.361415771024153
 20
0.0
 30
0.7343950851474652
 41
1.0
  0
SPLINE
  5
DA
330
70
100
AcDbEntity
  8
cat 2 v1_Sketch1
100
AcDbSpline
210
0.0
220
1.0
230
0.0
 70
    12
 71
     5
 72
    16
 73
    10
 74
     0
 42
0.000000001
 43
0.0000000001
 40
0.0
 40
0.0
 40
0.0
 40
0.0
 40
0.0
 40
0.0
 40
0.2
 40
0.4
 40
0.6000000000000001
 40
0.8
 40
1.0
 40
1.0
 40
1.0
 40
1.0
 40
1.0
 40
1.0
 10
10.45159646676584
 20
0.0
 30
4.550501778734314
 41
1.0
 10
10.45159646676584
 20
0.0
 30
4.75693048332684
 41
1.0
 10
10.43408499059528
 20
0.0
 30
5.144562989163404
 41
1.0
 10
10.3553306071249
 20
0.0
 30
5.650405113869957
 41
1.0
 10
10.15983145680975
 20
0.0
 30
6.194507627063247
 41
1.0
 10
9.815062929346119
 20
0.0
 30
6.730019529810602
 41
1.0
 10
9.489978159027099
 20
0.0
 30
7.087456755156157
 41
1.0
 10
9.227554662210724
 20
0.0
 30
7.328727487524741
 41
1.0
 10
9.044872015527634
 20
0.0
 30
7.478434488302937
 41
1.0
 10
8.951596466765856
 20
0.0
 30
7.550501778734286
 41
1.0
  0
SPLINE
  5
DB
330
70
100
AcDbEntity
  8
cat 2 v1_Sketch1
100
AcDbSpline
210
0.0
220
1.0
230
0.0
 70
    12
 71
     3
 72
     8
 73
     4
 74
     0
 42
0.000000001
 43
0.0000000001
 40
0.0
 40
0.0
 40
0.0
 40
0.0
 40
1.0
 40
1.0
 40
1.0
 40
1.0
 10
7.020730047401514
 20
0.0
 30
5.248186105858728
 41
1.0
 10
7.060417547401513
 20
0.0
 30
5.17939427770321
 41
1.0
 10
7.033959214068181
 20
0.0
 30
5.089436105858728
 41
1.0
 10
6.965168193356918
 20
0.0
 30
5.052394600680911
 41
1.0
  0
SPLINE
  5
DC
330
70
100
AcDbEntity
  8
cat 2 v1_Sketch1
100
AcDbSpline
210
0.0
220
1.0
230
0.0
 70
    12
 71
     3
 72
     8
 73
     4
 74
     0
 42
0.000000001
 43
0.0000000001
 40
0.0
 40
0.0
 40
0.0
 40
0.0
 40
1.0
 40
1.0
 40
1.0
 40
1.0
 10
3.107542708890365
 20
0.0
 30
3.975540111036544
 41
1.0
 10
3.102250719245995
 20
0.0
 30
3.840602449547692
 41
1.0
 10
3.155167385912662
 20
0.0
 30
3.755936267347578
 41
1.0
 10
3.202792870379215
 20
0.0
 30
3.705664788058841
 41
1.0
  0
SPLINE
  5
DD
330
70
100
AcDbEntity
  8
cat 2 v1_Sketch1
100
AcDbSpline
210
0.0
220
1.0
230
0.0
 70
    12
 71
     3
 72
     8
 73
     4
 74
     0
 42
0.000000001
 43
0.0000000001
 40
0.0
 40
0.0
 40
0.0
 40
0.0
 40
1.0
 40
1.0
 40
1.0
 40
1.0
 10
7.068354724423812
 20
0.0
 30
3.536332423658613
 41
1.0
 10
7.145084537045883
 20
0.0
 30
3.50987409032528
 41
1.0
 10
7.184772037045882
 20
0.0
 30
3.427853095503095
 41
1.0
 10
7.158313703712549
 20
0.0
 30
3.353770085147463
 41
1.0
  0
LINE
  5
DE
330
70
100
AcDbEntity
  8
cat 2 v1_Sketch1
100
AcDbLine
 10
4.000000052154064
 20
0.0
 30
5.400000092387199
 11
3.500000052154064
 21
0.0
 31
5.400000092387199
  0
LINE
  5
DF
330
70
100
AcDbEntity
  8
cat 2 v1_Sketch1
100
AcDbLine
 10
7.145084537045883
 20
0.0
 30
4.160749251814131
 11
6.883146391090479
 21
0.0
 31
4.160749251814131
  0
SPLINE
  5
E0
330
70
100
AcDbEntity
  8
cat 2 v1_Sketch1
100
AcDbSpline
210
0.0
220
0.0
230
1.0
 70
    28
 71
     5
 72
    16
 73
    10
 74
     0
 42
0.000000001
 43
0.0000000001
 40
0.0
 40
0.0
 40
0.0
 40
0.0
 40
0.0
 40
0.0
 40
0.2
 40
0.4
 40
0.6000000000000001
 40
0.8
 40
1.0
 40
1.0
 40
1.0
 40
1.0
 40
1.0
 40
1.0
 10
0.6784361485918793
 20
0.0
 30
10.97242542648021
 41
1.0
 10
0.7108556108543369
 20
0.0
 30
10.97242542647962
 41
1.0
 10
0.7756945353792844
 20
0.0
 30
10.97242542647858
 41
1.0
 10
0.8729529221668203
 20
0.0
 30
10.97242542647754
 41
1.0
 10
1.002630771217073
 20
0.0
 30
10.97242542647707
 41
1.0
 10
1.164728082530144
 20
0.0
 30
10.97242542647751
 41
1.0
 10
1.294405931580743
 20
0.0
 30
10.97242542647837
 41
1.0
 10
1.391664318368759
 20
0.0
 30
10.97242542647923
 41
1.0
 10
1.456503242894129
 20
0.0
 30
10.97242542647988
 41
1.0
 10
1.488922705156821
 20
0.0
 30
10.97242542648022
 41
1.0
  0
SPLINE
  5
E1
330
70
100
AcDbEntity
  8
cat 2 v1_Sketch1
100
AcDbSpline
210
0.0
220
1.0
230
0.0
 70
    12
 71
     3
 72
     8
 73
     4
 74
     0
 42
0.000000001
 43
0.0000000001
 40
0.0
 40
0.0
 40
0.0
 40
0.0
 40
1.0
 40
1.0
 40
1.0
 40
1.0
 10
0.3347072762019696
 20
0.0
 30
3.353770085147463
 41
1.0
 10
0.3082489428686363
 20
0.0
 30
3.430499090325279
 41
1.0
 10
0.3479364428686358
 20
0.0
 30
3.512520085147463
 41
1.0
 10
0.4246654480464517
 20
0.0
 30
3.536332423658613
 41
1.0
  0
SPLINE
  5
E2
330
70
100
AcDbEntity
  8
cat 2 v1_Sketch1
100
AcDbSpline
210
0.0
220
1.0
230
0.0
 70
    12
 71
     3
 72
     8
 73
     4
 74
     0
 42
0.000000001
 43
0.0000000001
 40
0.0
 40
0.0
 40
0.0
 40
0.0
 40
1.0
 40
1.0
 40
1.0
 40
1.0
 10
0.6125197762019692
 20
0.0
 30
4.451790918480797
 41
1.0
 10
0.6283949376908203
 20
0.0
 30
4.618478095503096
 41
1.0
 10
0.6654364428686357
 20
0.0
 30
4.782520085147464
 41
1.0
 10
0.7262902865576013
 20
0.0
 30
4.93862409032528
 41
1.0
  0
LINE
  5
E3
330
70
100
AcDbEntity
  8
cat 2 v1_Sketch1
100
AcDbLine
 10
6.877856016334619
 20
0.0
 30
4.451790918480797
 11
7.145084537045883
 21
0.0
 31
4.451790918480797
  0
LINE
  5
E4
330
70
100
AcDbEntity
  8
cat 2 v1_Sketch1
100
AcDbLine
 10
12.9025373017823
 20
-0.0000000000000465
 30
4.299036374944936
 11
12.9025373017823
 21
-0.0000000000000142
 31
4.799036374944936
  0
SPLINE
  5
E5
330
70
100
AcDbEntity
  8
cat 2 v1_Sketch1
100
AcDbSpline
210
0.0
220
1.0
230
0.0
 70
    12
 71
     3
 72
     8
 73
     4
 74
     0
 42
0.000000001
 43
0.0000000001
 40
0.0
 40
0.0
 40
0.0
 40
0.0
 40
1.0
 40
1.0
 40
1.0
 40
1.0
 10
3.745188703712549
 20
0.0
 30
4.480894439192061
 41
1.0
 10
3.520292870379214
 20
0.0
 30
4.412102611036543
 41
1.0
 10
3.118125880734846
 20
0.0
 30
4.208373928836428
 41
1.0
 10
3.107542708890365
 20
0.0
 30
3.975540111036544
 41
1.0
  0
ENDSEC
  0
SECTION
  2
OBJECTS
  0
DICTIONARY
  5
C
330
0
100
AcDbDictionary
281
     1
  3
ACAD_COLOR
350
63
  3
ACAD_DETAILVIEWSTYLE
350
6A
  3
ACAD_GROUP
350
D
  3
ACAD_LAYOUT
350
62
  3
ACAD_MATERIAL
350
10
  3
ACAD_MLEADERSTYLE
350
66
  3
ACAD_MLINESTYLE
350
5F
  3
ACAD_PLOTSETTINGS
350
61
  3
ACAD_PLOTSTYLENAME
350
E
  3
ACAD_SCALELIST
350
42
  3
ACAD_SECTIONVIEWSTYLE
350
68
  3
ACAD_TABLESTYLE
350
64
  3
ACAD_VISUALSTYLE
350
29
  3
ACDB_RECOMPOSE_DATA
350
EE
  3
AcDbVariableDictionary
350
E6
  0
DICTIONARY
  5
63
102
{ACAD_REACTORS
330
C
102
}
330
C
100
AcDbDictionary
281
     1
  0
DICTIONARY
  5
6A
102
{ACAD_REACTORS
330
C
102
}
330
C
100
AcDbDictionary
281
     1
  3
Imperial24
350
6B
  0
DICTIONARY
  5
D
102
{ACAD_REACTORS
330
C
102
}
330
C
100
AcDbDictionary
281
     1
  0
DICTIONARY
  5
62
102
{ACAD_REACTORS
330
C
102
}
330
C
100
AcDbDictionary
281
     1
  3
Layout1
350
6F
  3
Layout2
350
77
  3
Model
350
73
  0
DICTIONARY
  5
10
102
{ACAD_REACTORS
330
C
102
}
330
C
100
AcDbDictionary
281
     1
  3
ByBlock
350
19
  3
ByLayer
350
11
  3
Global
350
21
  0
DICTIONARY
  5
66
102
{ACAD_REACTORS
330
C
102
}
330
C
100
AcDbDictionary
281
     1
  3
Standard
350
67
  0
DICTIONARY
  5
5F
102
{ACAD_REACTORS
330
C
102
}
330
C
100
AcDbDictionary
281
     1
  3
Standard
350
60
  0
DICTIONARY
  5
61
102
{ACAD_REACTORS
330
C
102
}
330
C
100
AcDbDictionary
281
     1
  0
ACDBDICTIONARYWDFLT
  5
E
102
{ACAD_REACTORS
330
C
102
}
330
C
100
AcDbDictionary
281
     1
  3
Normal
350
F
100
AcDbDictionaryWithDefault
340
F
  0
DICTIONARY
  5
42
102
{ACAD_REACTORS
330
C
102
}
330
C
100
AcDbDictionary
281
     1
  3
A0
350
43
  3
A1
350
44
  3
A2
350
45
  3
A3
350
46
  3
A4
350
47
  3
A5
350
48
  3
A6
350
49
  3
A7
350
4A
  3
A8
350
4B
  3
A9
350
4C
  3
B0
350
4D
  3
B1
350
4E
  3
B2
350
4F
  3
B3
350
50
  3
B4
350
51
  3
B5
350
52
  3
B6
350
53
  0
DICTIONARY
  5
68
102
{ACAD_REACTORS
330
C
102
}
330
C
100
AcDbDictionary
281
     1
  3
Imperial24
350
69
  0
DICTIONARY
  5
64
102
{ACAD_REACTORS
330
C
102
}
330
C
100
AcDbDictionary
281
     1
  3
Standard
350
65
  0
DICTIONARY
  5
29
102
{ACAD_REACTORS
330
C
102
}
330
C
100
AcDbDictionary
281
     1
  3
2dWireframe
350
2F
  3
Basic
350
2E
  3
Brighten
350
35
  3
ColorChange
350
39
  3
Conceptual
350
32
  3
Dim
350
34
  3
EdgeColorOff
350
41
  3
Facepattern
350
38
  3
Flat
350
2A
  3
FlatWithEdges
350
2B
  3
Gouraud
350
2C
  3
GouraudWithEdges
350
2D
  3
Hidden
350
31
  3
JitterOff
350
3F
  3
Linepattern
350
37
  3
OverhangOff
350
40
  3
Realistic
350
33
  3
Shaded
350
3E
  3
Shaded with edges
350
3D
  3
Shades of Gray
350
3A
  3
Sketchy
350
3B
  3
Thicken
350
36
  3
Wireframe
350
30
  3
X-Ray
350
3C
  0
XRECORD
  5
EE
102
{ACAD_REACTORS
330
C
102
}
330
C
100
AcDbXrecord
280
     1
 90
        1
330
65
  0
DICTIONARY
  5
E6
102
{ACAD_REACTORS
330
C
102
}
330
C
100
AcDbDictionary
281
     1
  3
CANNOSCALE
350
EB
  3
CMLEADERSTYLE
350
E8
  3
CTABLESTYLE
350
E7
  3
CVIEWDETAILSTYLE
350
E9
  3
CVIEWSECTIONSTYLE
350
EA
  0
ACDBDETAILVIEWSTYLE
  5
6B
102
{ACAD_XDICTIONARY
360
F1
102
}
102
{ACAD_REACTORS
330
6A
102
}
330
6A
100
AcDbModelDocViewStyle
 70
     0
  3
Imperial24
290
     0
100
AcDbDetailViewStyle
 70
     0
 71
     0
 90
        3
 71
     1
340
55
 62
   256
 40
0.24
340
0
 62
   256
 40
0.24
300

 40
0.36
280
     3
 71
     2
340
5D
 90
       25
 62
   256
 71
     3
340
55
 62
   256
 40
0.24
 90
        1
 40
0.75
 90
        1
300
%<\AcVar ViewType \f "%tc1">% %<\AcVar ViewDetailId>%\PSCALE %<\AcVar ViewScale \f "%sn">%
 71
     4
340
5D
 90
       25
 62
   256
340
5D
 90
       25
 62
   256
280
     0
  0
LAYOUT
  5
6F
102
{ACAD_REACTORS
330
62
102
}
330
62
100
AcDbPlotSettings
  1

  2

  4

  6

 40
0.0
 41
0.0
 42
0.0
 43
0.0
 44
0.0
 45
0.0
 46
0.0
 47
0.0
 48
0.0
 49
0.0
140
0.0
141
0.0
142
1.0
143
1.0
 70
   688
 72
     0
 73
     0
 74
     5
  7

 75
    16
147
1.0
 76
     0
 77
     2
 78
   300
148
0.0
149
0.0
100
AcDbLayout
  1
Layout1
 70
     1
 71
     1
 10
0.0
 20
0.0
 11
12.0
 21
9.0
 12
0.0
 22
0.0
 32
0.0
 14
0.0
 24
0.0
 34
0.0
 15
0.0
 25
0.0
 35
0.0
146
0.0
 13
0.0
 23
0.0
 33
0.0
 16
1.0
 26
0.0
 36
0.0
 17
0.0
 27
1.0
 37
0.0
 76
     0
330
6C
  0
LAYOUT
  5
77
102
{ACAD_REACTORS
330
62
102
}
330
62
100
AcDbPlotSettings
  1

  2

  4

  6

 40
0.0
 41
0.0
 42
0.0
 43
0.0
 44
0.0
 45
0.0
 46
0.0
 47
0.0
 48
0.0
 49
0.0
140
0.0
141
0.0
142
1.0
143
1.0
 70
   688
 72
     0
 73
     0
 74
     5
  7

 75
    16
147
1.0
 76
     0
 77
     2
 78
   300
148
0.0
149
0.0
100
AcDbLayout
  1
Layout2
 70
     1
 71
     2
 10
0.0
 20
0.0
 11
12.0
 21
9.0
 12
0.0
 22
0.0
 32
0.0
 14
0.0
 24
0.0
 34
0.0
 15
0.0
 25
0.0
 35
0.0
146
0.0
 13
0.0
 23
0.0
 33
0.0
 16
1.0
 26
0.0
 36
0.0
 17
0.0
 27
1.0
 37
0.0
 76
     0
330
74
  0
LAYOUT
  5
73
102
{ACAD_REACTORS
330
62
102
}
330
62
100
AcDbPlotSettings
  1

  2

  4

  6

 40
0.0
 41
0.0
 42
0.0
 43
0.0
 44
0.0
 45
0.0
 46
0.0
 47
0.0
 48
0.0
 49
0.0
140
0.0
141
0.0
142
1.0
143
1.0
 70
  1712
 72
     0
 73
     0
 74
     0
  7

 75
     0
147
1.0
 76
     0
 77
     2
 78
   300
148
0.0
149
0.0
100
AcDbLayout
  1
Model
 70
     1
 71
     0
 10
0.0
 20
0.0
 11
12.0
 21
9.0
 12
0.0
 22
0.0
 32
0.0
 14
0.0
 24
0.0
 34
0.0
 15
0.0
 25
0.0
 35
0.0
146
0.0
 13
0.0
 23
0.0
 33
0.0
 16
1.0
 26
0.0
 36
0.0
 17
0.0
 27
1.0
 37
0.0
 76
     0
330
70
  0
MATERIAL
  5
19
102
{ACAD_XDICTIONARY
360
1A
102
}
102
{ACAD_REACTORS
330
10
102
}
330
10
100
AcDbMaterial
  1
ByBlock
 72
     0
 43
0.0208333333333333
 43
0.0
 43
0.0
 43
0.0
 43
0.0
 43
0.0208333333333333
 43
0.0
 43
0.0
 43
0.0
 43
0.0
 43
1.0
 43
0.0
 43
0.0
 43
0.0
 43
0.0
 43
1.0
 77
     0
 47
0.0208333333333333
 47
0.0
 47
0.0
 47
0.0
 47
0.0
 47
0.0208333333333333
 47
0.0
 47
0.0
 47
0.0
 47
0.0
 47
1.0
 47
0.0
 47
0.0
 47
0.0
 47
0.0
 47
1.0
171
     0
 49
0.0208333333333333
 49
0.0
 49
0.0
 49
0.0
 49
0.0
 49
0.0208333333333333
 49
0.0
 49
0.0
 49
0.0
 49
0.0
 49
1.0
 49
0.0
 49
0.0
 49
0.0
 49
0.0
 49
1.0
175
     0
142
0.0208333333333333
142
0.0
142
0.0
142
0.0
142
0.0
142
0.0208333333333333
142
0.0
142
0.0
142
0.0
142
0.0
142
1.0
142
0.0
142
0.0
142
0.0
142
0.0
142
1.0
179
     0
144
0.0208333333333333
144
0.0
144
0.0
144
0.0
144
0.0
144
0.0208333333333333
144
0.0
144
0.0
144
0.0
144
0.0
144
1.0
144
0.0
144
0.0
144
0.0
144
0.0
144
1.0
147
0.0208333333333333
147
0.0
147
0.0
147
0.0
147
0.0
147
0.0208333333333333
147
0.0
147
0.0
147
0.0
147
0.0
147
1.0
147
0.0
147
0.0
147
0.0
147
0.0
147
1.0
  0
MATERIAL
  5
11
102
{ACAD_XDICTIONARY
360
12
102
}
102
{ACAD_REACTORS
330
10
102
}
330
10
100
AcDbMaterial
  1
ByLayer
 72
     0
 43
0.0208333333333333
 43
0.0
 43
0.0
 43
0.0
 43
0.0
 43
0.0208333333333333
 43
0.0
 43
0.0
 43
0.0
 43
0.0
 43
1.0
 43
0.0
 43
0.0
 43
0.0
 43
0.0
 43
1.0
 77
     0
 47
0.0208333333333333
 47
0.0
 47
0.0
 47
0.0
 47
0.0
 47
0.0208333333333333
 47
0.0
 47
0.0
 47
0.0
 47
0.0
 47
1.0
 47
0.0
 47
0.0
 47
0.0
 47
0.0
 47
1.0
171
     0
 49
0.0208333333333333
 49
0.0
 49
0.0
 49
0.0
 49
0.0
 49
0.0208333333333333
 49
0.0
 49
0.0
 49
0.0
 49
0.0
 49
1.0
 49
0.0
 49
0.0
 49
0.0
 49
0.0
 49
1.0
175
     0
142
0.0208333333333333
142
0.0
142
0.0
142
0.0
142
0.0
142
0.0208333333333333
142
0.0
142
0.0
142
0.0
142
0.0
142
1.0
142
0.0
142
0.0
142
0.0
142
0.0
142
1.0
179
     0
144
0.0208333333333333
144
0.0
144
0.0
144
0.0
144
0.0
144
0.0208333333333333
144
0.0
144
0.0
144
0.0
144
0.0
144
1.0
144
0.0
144
0.0
144
0.0
144
0.0
144
1.0
147
0.0208333333333333
147
0.0
147
0.0
147
0.0
147
0.0
147
0.0208333333333333
147
0.0
147
0.0
147
0.0
147
0.0
147
1.0
147
0.0
147
0.0
147
0.0
147
0.0
147
1.0
  0
MATERIAL
  5
21
102
{ACAD_XDICTIONARY
360
22
102
}
102
{ACAD_REACTORS
330
10
102
}
330
10
100
AcDbMaterial
  1
Global
 72
     0
 43
0.0208333333333333
 43
0.0
 43
0.0
 43
0.0
 43
0.0
 43
0.0208333333333333
 43
0.0
 43
0.0
 43
0.0
 43
0.0
 43
1.0
 43
0.0
 43
0.0
 43
0.0
 43
0.0
 43
1.0
 77
     0
 47
0.0208333333333333
 47
0.0
 47
0.0
 47
0.0
 47
0.0
 47
0.0208333333333333
 47
0.0
 47
0.0
 47
0.0
 47
0.0
 47
1.0
 47
0.0
 47
0.0
 47
0.0
 47
0.0
 47
1.0
171
     0
 49
0.0208333333333333
 49
0.0
 49
0.0
 49
0.0
 49
0.0
 49
0.0208333333333333
 49
0.0
 49
0.0
 49
0.0
 49
0.0
 49
1.0
 49
0.0
 49
0.0
 49
0.0
 49
0.0
 49
1.0
175
     0
142
0.0208333333333333
142
0.0
142
0.0
142
0.0
142
0.0
142
0.0208333333333333
142
0.0
142
0.0
142
0.0
142
0.0
142
1.0
142
0.0
142
0.0
142
0.0
142
0.0
142
1.0
179
     0
144
0.0208333333333333
144
0.0
144
0.0
144
0.0
144
0.0
144
0.0208333333333333
144
0.0
144
0.0
144
0.0
144
0.0
144
1.0
144
0.0
144
0.0
144
0.0
144
0.0
144
1.0
147
0.0208333333333333
147
0.0
147
0.0
147
0.0
147
0.0
147
0.0208333333333333
147
0.0
147
0.0
147
0.0
147
0.0
147
1.0
147
0.0
147
0.0
147
0.0
147
0.0
147
1.0
  0
MLEADERSTYLE
  5
67
102
{ACAD_REACTORS
330
66
102
}
330
66
100
AcDbMLeaderStyle
179
     2
170
     2
171
     1
172
     0
 90
        2
 40
0.0
 41
0.0
173
     1
 91
-1056964608
340
5B
 92
       -2
290
     1
 42
0.09
291
     1
 43
0.36
  3
Standard
 44
0.18
300

342
55
174
     1
178
     6
175
     1
176
     0
 93
-1056964608
 45
0.18
292
     0
297
     0
 46
0.18
 94
-1056964608
 47
1.0
 49
1.0
140
1.0
293
     1
141
0.0
294
     1
177
     0
142
1.0
295
     0
296
     0
143
0.125
271
     0
272
     9
273
     9
298
     1
  0
MLINESTYLE
  5
60
102
{ACAD_REACTORS
330
5F
102
}
330
5F
100
AcDbMlineStyle
  2
STANDARD
 70
     0
  3

 62
   256
 51
90.0
 52
90.0
 71
     2
 49
0.5
 62
   256
  6
BYLAYER
 49
-0.5
 62
   256
  6
BYLAYER
  0
ACDBPLACEHOLDER
  5
F
102
{ACAD_REACTORS
330
E
102
}
330
E
  0
SCALE
  5
43
102
{ACAD_REACTORS
330
42
102
}
330
42
100
AcDbScale
 70
     0
300
1:1
140
1.0
141
1.0
290
     1
  0
SCALE
  5
44
102
{ACAD_REACTORS
330
42
102
}
330
42
100
AcDbScale
 70
     0
300
1/128" = 1'-0"
140
0.0078125
141
12.0
290
     0
  0
SCALE
  5
45
102
{ACAD_REACTORS
330
42
102
}
330
42
100
AcDbScale
 70
     0
300
1/64" = 1'-0"
140
0.015625
141
12.0
290
     0
  0
SCALE
  5
46
102
{ACAD_REACTORS
330
42
102
}
330
42
100
AcDbScale
 70
     0
300
1/32" = 1'-0"
140
0.03125
141
12.0
290
     0
  0
SCALE
  5
47
102
{ACAD_REACTORS
330
42
102
}
330
42
100
AcDbScale
 70
     0
300
1/16" = 1'-0"
140
0.0625
141
12.0
290
     0
  0
SCALE
  5
48
102
{ACAD_REACTORS
330
42
102
}
330
42
100
AcDbScale
 70
     0
300
3/32" = 1'-0"
140
0.09375
141
12.0
290
     0
  0
SCALE
  5
49
102
{ACAD_REACTORS
330
42
102
}
330
42
100
AcDbScale
 70
     0
300
1/8" = 1'-0"
140
0.125
141
12.0
290
     0
  0
SCALE
  5
4A
102
{ACAD_REACTORS
330
42
102
}
330
42
100
AcDbScale
 70
     0
300
3/16" = 1'-0"
140
0.1875
141
12.0
290
     0
  0
SCALE
  5
4B
102
{ACAD_REACTORS
330
42
102
}
330
42
100
AcDbScale
 70
     0
300
1/4" = 1'-0"
140
0.25
141
12.0
290
     0
  0
SCALE
  5
4C
102
{ACAD_REACTORS
330
42
102
}
330
42
100
AcDbScale
 70
     0
300
3/8" = 1'-0"
140
0.375
141
12.0
290
     0
  0
SCALE
  5
4D
102
{ACAD_REACTORS
330
42
102
}
330
42
100
AcDbScale
 70
     0
300
1/2" = 1'-0"
140
0.5
141
12.0
290
     0
  0
SCALE
  5
4E
102
{ACAD_REACTORS
330
42
102
}
330
42
100
AcDbScale
 70
     0
300
3/4" = 1'-0"
140
0.75
141
12.0
290
     0
  0
SCALE
  5
4F
102
{ACAD_REACTORS
330
42
102
}
330
42
100
AcDbScale
 70
     0
300
1" = 1'-0"
140
1.0
141
12.0
290
     0
  0
SCALE
  5
50
102
{ACAD_REACTORS
330
42
102
}
330
42
100
AcDbScale
 70
     0
300
1-1/2" = 1'-0"
140
1.5
141
12.0
290
     0
  0
SCALE
  5
51
102
{ACAD_REACTORS
330
42
102
}
330
42
100
AcDbScale
 70
     0
300
3" = 1'-0"
140
3.0
141
12.0
290
     0
  0
SCALE
  5
52
102
{ACAD_REACTORS
330
42
102
}
330
42
100
AcDbScale
 70
     0
300
6" = 1'-0"
140
6.0
141
12.0
290
     0
  0
SCALE
  5
53
102
{ACAD_REACTORS
330
42
102
}
330
42
100
AcDbScale
 70
     0
300
1'-0" = 1'-0"
140
12.0
141
12.0
290
     0
  0
ACDBSECTIONVIEWSTYLE
  5
69
102
{ACAD_XDICTIONARY
360
EF
102
}
102
{ACAD_REACTORS
330
68
102
}
330
68
100
AcDbModelDocViewStyle
 70
     0
  3
Imperial24
290
     0
100
AcDbSectionViewStyle
 70
     0
 71
     0
 90
       78
 71
     1
340
55
 62
   256
 40
0.24
340
0
340
0
 62
   256
 40
0.24
300
I, O, Q, S, X, Z
 40
0.48
 90
        3
 40
0.18
 90
        1
 71
     2
340
5D
 90
       25
 62
   256
340
5D
 90
       50
 62
   256
 40
0.24
 40
0.0
 40
0.24
 71
     3
340
55
 62
   256
 40
0.24
 90
        1
 40
0.75
 90
        1
300
%<\AcVar ViewType \f "%tc1">% %<\AcVar ViewSectionStartId>%-%<\AcVar ViewSectionEndId>%\PSCALE %<\AcVar ViewScale \f "%sn">%
 71
     4
 62
   256
 62
   257
300
ANSI31
 40
1.0
 90
        0
290
     0
290
     0
 90
        6
 40
0.0
 40
1.570796326794896
 40
0.2617993877991494
 40
1.308996938995747
 40
-0.2617993877991494
 40
1.832595714594046
  0
TABLESTYLE
  5
65
102
{ACAD_XDICTIONARY
360
EC
102
}
102
{ACAD_REACTORS
330
64
102
}
330
64
100
AcDbTableStyle
280
     0
  3
Standard
 70
     0
 71
     0
 40
0.06
 41
0.06
280
     0
281
     0
  7
Standard
140
0.18
170
     2
 62
     0
 63
     7
283
     0
 90
      512
 91
        0
  1

274
    -2
284
     1
 64
     0
275
    -2
285
     1
 65
     0
276
    -2
286
     1
 66
     0
277
    -2
287
     1
 67
     0
278
    -2
288
     1
 68
     0
279
    -2
289
     1
 69
     0
  7
Standard
140
0.25
170
     5
 62
     0
 63
     7
283
     0
 90
      512
 91
        0
  1

274
    -2
284
     1
 64
     0
275
    -2
285
     1
 65
     0
276
    -2
286
     1
 66
     0
277
    -2
287
     1
 67
     0
278
    -2
288
     1
 68
     0
279
    -2
289
     1
 69
     0
  7
Standard
140
0.18
170
     5
 62
     0
 63
     7
283
     0
 90
      512
 91
        0
  1

274
    -2
284
     1
 64
     0
275
    -2
285
     1
 65
     0
276
    -2
286
     1
 66
     0
277
    -2
287
     1
 67
     0
278
    -2
288
     1
 68
     0
279
    -2
289
     1
 69
     0
  0
VISUALSTYLE
  5
2F
102
{ACAD_REACTORS
330
29
102
}
330
29
100
AcDbVisualStyle
  2
2dWireframe
 70
     4
177
     3
291
     0
 70
    58
 90
        0
176
     1
 90
        2
176
     1
 90
        0
176
     1
 90
        0
176
     1
 40
0.6
176
     1
 40
30.0
176
     1
 62
     7
420
 16777215
176
     1
 90
        1
176
     1
 90
        4
176
     1
 62
     7
176
     1
 62
   257
176
     1
 90
        1
176
     1
 90
        1
176
     1
 40
1.0
176
     1
 90
        0
176
     1
 62
   257
176
     1
 40
1.0
176
     1
 90
        1
176
     1
 90
        6
176
     1
 90
        2
176
     1
 62
     7
176
     1
 90
        5
176
     1
 90
        0
176
     1
 90
        0
176
     1
290
     0
176
     1
 90
        1
176
     1
 40
0.0
176
     1
 90
        0
176
     1
290
     1
176
     1
290
     1
176
     1
290
     0
176
     1
290
     0
176
     1
290
     0
176
     1
290
     0
176
     1
290
     0
176
     1
290
     0
176
     1
290
     0
176
     1
 90
       50
176
     1
 40
0.0
176
     1
 40
1.0
176
     1
 90
        0
176
     1
 62
    18
420
        0
176
     1
 90
       50
176
     1
 90
        3
176
     1
 62
     5
420
      255
176
     1
290
     0
176
     1
 90
       50
176
     1
 90
       50
176
     1
 90
       50
176
     1
290
     0
176
     1
 90
       50
176
     1
 62
   256
176
     0
 40
1.0
176
     0
 90
        2
176
     1
  1
strokes_ogs.tif
176
     1
290
     0
176
     1
 40
1.0
176
     1
 40
1.0
176
     1
1001
ACAD
1000
AcDbSavedByObjectVersion
1070
     0
  0
VISUALSTYLE
  5
2E
102
{ACAD_REACTORS
330
29
102
}
330
29
100
AcDbVisualStyle
  2
Basic
 70
     7
177
     3
291
     1
 70
    58
 90
        1
176
     1
 90
        0
176
     1
 90
        1
176
     1
 90
        0
176
     1
 40
0.6
176
     1
 40
30.0
176
     1
 62
     7
420
 16777215
176
     1
 90
        0
176
     1
 90
        4
176
     1
 62
     7
176
     1
 62
   257
176
     1
 90
        1
176
     1
 90
        1
176
     1
 40
1.0
176
     1
 90
        8
176
     1
 62
     7
176
     1
 40
1.0
176
     1
 90
        1
176
     1
 90
        6
176
     1
 90
        2
176
     1
 62
     7
176
     1
 90
        5
176
     1
 90
        0
176
     1
 90
        0
176
     1
290
     0
176
     1
 90
        1
176
     1
 40
0.0
176
     1
 90
        0
176
     1
290
     0
176
     1
290
     1
176
     1
290
     1
176
     1
290
     0
176
     1
290
     0
176
     1
290
     0
176
     1
290
     0
176
     1
290
     0
176
     1
290
     0
176
     1
 90
       50
176
     1
 40
0.0
176
     1
 40
1.0
176
     1
 90
        0
176
     1
 62
    18
420
        0
176
     1
 90
       50
176
     1
 90
        3
176
     1
 62
     5
420
      255
176
     1
290
     0
176
     1
 90
       50
176
     1
 90
       50
176
     1
 90
       50
176
     1
290
     0
176
     1
 90
       50
176
     1
 62
   256
176
     0
 40
1.0
176
     0
 90
        2
176
     1
  1
strokes_ogs.tif
176
     1
290
     0
176
     1
 40
1.0
176
     1
 40
1.0
176
     1
1001
ACAD
1000
AcDbSavedByObjectVersion
1070
     0
  0
VISUALSTYLE
  5
35
102
{ACAD_REACTORS
330
29
102
}
330
29
100
AcDbVisualStyle
  2
Brighten
 70
    12
177
     3
291
     1
 70
    58
 90
        2
176
     1
 90
        2
176
     1
 90
        0
176
     1
 90
        0
176
     1
 40
0.6
176
     1
 40
30.0
176
     1
 62
     7
420
 16777215
176
     1
 90
        1
176
     1
 90
        4
176
     1
 62
     7
176
     1
 62
   257
176
     1
 90
        1
176
     1
 90
        1
176
     1
 40
1.0
176
     1
 90
        8
176
     1
 62
     7
176
     1
 40
1.0
176
     1
 90
        1
176
     1
 90
        6
176
     1
 90
        2
176
     1
 62
     7
176
     1
 90
        5
176
     1
 90
        0
176
     1
 90
        0
176
     1
290
     0
176
     1
 90
        1
176
     1
 40
50.0
176
     1
 90
        0
176
     1
290
     0
176
     1
290
     1
176
     1
290
     1
176
     1
290
     0
176
     1
290
     0
176
     1
290
     0
176
     1
290
     0
176
     1
290
     0
176
     1
290
     0
176
     1
 90
       50
176
     1
 40
0.0
176
     1
 40
1.0
176
     1
 90
        0
176
     1
 62
    18
420
        0
176
     1
 90
       50
176
     1
 90
        3
176
     1
 62
     5
420
      255
176
     1
290
     0
176
     1
 90
       50
176
     1
 90
       50
176
     1
 90
       50
176
     1
290
     0
176
     1
 90
       50
176
     1
 62
   256
176
     0
 40
1.0
176
     0
 90
        2
176
     1
  1
strokes_ogs.tif
176
     1
290
     0
176
     1
 40
1.0
176
     1
 40
1.0
176
     1
1001
ACAD
1000
AcDbSavedByObjectVersion
1070
     0
  0
VISUALSTYLE
  5
39
102
{ACAD_REACTORS
330
29
102
}
330
29
100
AcDbVisualStyle
  2
ColorChange
 70
    16
177
     3
291
     1
 70
    58
 90
        2
176
     1
 90
        2
176
     1
 90
        3
176
     1
 90
        0
176
     1
 40
0.6
176
     1
 40
30.0
176
     1
 62
     8
420
  8421504
176
     1
 90
        1
176
     1
 90
        4
176
     1
 62
     7
176
     1
 62
   257
176
     1
 90
        1
176
     1
 90
        1
176
     1
 40
1.0
176
     1
 90
        8
176
     1
 62
     8
420
  8421504
176
     1
 40
1.0
176
     1
 90
        1
176
     1
 90
        6
176
     1
 90
        2
176
     1
 62
     7
176
     1
 90
        5
176
     1
 90
        0
176
     1
 90
        0
176
     1
290
     0
176
     1
 90
        1
176
     1
 40
0.0
176
     1
 90
        0
176
     1
290
     0
176
     1
290
     1
176
     1
290
     1
176
     1
290
     0
176
     1
290
     0
176
     1
290
     0
176
     1
290
     0
176
     1
290
     0
176
     1
290
     0
176
     1
 90
       50
176
     1
 40
0.0
176
     1
 40
1.0
176
     1
 90
        0
176
     1
 62
    18
420
        0
176
     1
 90
       50
176
     1
 90
        3
176
     1
 62
     5
420
      255
176
     1
290
     0
176
     1
 90
       50
176
     1
 90
       50
176
     1
 90
       50
176
     1
290
     0
176
     1
 90
       50
176
     1
 62
   256
176
     0
 40
1.0
176
     0
 90
        2
176
     1
  1
strokes_ogs.tif
176
     1
290
     0
176
     1
 40
1.0
176
     1
 40
1.0
176
     1
1001
ACAD
1000
AcDbSavedByObjectVersion
1070
     0
  0
VISUALSTYLE
  5
32
102
{ACAD_REACTORS
330
29
102
}
330
29
100
AcDbVisualStyle
  2
Conceptual
 70
     9
177
     3
291
     0
 70
    58
 90
        3
176
     1
 90
        2
176
     1
 90
        0
176
     1
 90
        0
176
     1
 40
0.6
176
     1
 40
30.0
176
     1
 62
     7
420
 16777215
176
     1
 90
        2
176
     1
 90
        2
176
     1
 62
     7
176
     1
 62
   257
176
     1
 90
        1
176
     1
 90
        1
176
     1
 40
179.0
176
     1
 90
        8
176
     1
 62
     7
176
     1
 40
1.0
176
     1
 90
        1
176
     1
 90
        6
176
     1
 90
        2
176
     1
 62
     7
176
     1
 90
        3
176
     1
 90
        0
176
     1
 90
        0
176
     1
290
     0
176
     1
 90
        1
176
     1
 40
0.0
176
     1
 90
        0
176
     1
290
     0
176
     1
290
     1
176
     1
290
     1
176
     1
290
     0
176
     1
290
     0
176
     1
290
     0
176
     1
290
     0
176
     1
290
     0
176
     1
290
     0
176
     1
 90
       50
176
     1
 40
0.0
176
     1
 40
1.0
176
     1
 90
        0
176
     1
 62
    18
420
        0
176
     1
 90
       50
176
     1
 90
        3
176
     1
 62
     5
420
      255
176
     1
290
     0
176
     1
 90
       50
176
     1
 90
       50
176
     1
 90
       50
176
     1
290
     0
176
     1
 90
       50
176
     1
 62
   256
176
     0
 40
1.0
176
     0
 90
        2
176
     1
  1
strokes_ogs.tif
176
     1
290
     0
176
     1
 40
1.0
176
     1
 40
1.0
176
     1
1001
ACAD
1000
AcDbSavedByObjectVersion
1070
     0
  0
VISUALSTYLE
  5
34
102
{ACAD_REACTORS
330
29
102
}
330
29
100
AcDbVisualStyle
  2
Dim
 70
    11
177
     3
291
     1
 70
    58
 90
        2
176
     1
 90
        2
176
     1
 90
        0
176
     1
 90
        0
176
     1
 40
0.6
176
     1
 40
30.0
176
     1
 62
     7
420
 16777215
176
     1
 90
        1
176
     1
 90
        4
176
     1
 62
     7
176
     1
 62
   257
176
     1
 90
        1
176
     1
 90
        1
176
     1
 40
1.0
176
     1
 90
        8
176
     1
 62
     7
176
     1
 40
1.0
176
     1
 90
        1
176
     1
 90
        6
176
     1
 90
        2
176
     1
 62
     7
176
     1
 90
        5
176
     1
 90
        0
176
     1
 90
        0
176
     1
290
     0
176
     1
 90
        1
176
     1
 40
-50.0
176
     1
 90
        0
176
     1
290
     0
176
     1
290
     1
176
     1
290
     1
176
     1
290
     0
176
     1
290
     0
176
     1
290
     0
176
     1
290
     0
176
     1
290
     0
176
     1
290
     0
176
     1
 90
       50
176
     1
 40
0.0
176
     1
 40
1.0
176
     1
 90
        0
176
     1
 62
    18
420
        0
176
     1
 90
       50
176
     1
 90
        3
176
     1
 62
     5
420
      255
176
     1
290
     0
176
     1
 90
       50
176
     1
 90
       50
176
     1
 90
       50
176
     1
290
     0
176
     1
 90
       50
176
     1
 62
   256
176
     0
 40
1.0
176
     0
 90
        2
176
     1
  1
strokes_ogs.tif
176
     1
290
     0
176
     1
 40
1.0
176
     1
 40
1.0
176
     1
1001
ACAD
1000
AcDbSavedByObjectVersion
1070
     0
  0
VISUALSTYLE
  5
41
102
{ACAD_REACTORS
330
29
102
}
330
29
100
AcDbVisualStyle
  2
EdgeColorOff
 70
    22
177
     3
291
     1
 70
    58
 90
        2
176
     0
 90
        2
176
     0
 90
        0
176
     0
 90
        0
176
     0
 40
0.6
176
     0
 40
30.0
176
     0
 62
     7
420
 16777215
176
     0
 90
        1
176
     0
 90
        4
176
     0
 62
     7
176
     0
 62
   257
176
     0
 90
        1
176
     0
 90
        1
176
     0
 40
1.0
176
     0
 90
        8
176
     2
 62
     7
176
     0
 40
1.0
176
     0
 90
        1
176
     0
 90
        6
176
     0
 90
        2
176
     0
 62
     7
176
     0
 90
        5
176
     0
 90
        0
176
     0
 90
        0
176
     0
290
     0
176
     0
 90
        1
176
     0
 40
0.0
176
     0
 90
        0
176
     0
290
     0
176
     0
290
     1
176
     0
290
     1
176
     0
290
     0
176
     0
290
     0
176
     0
290
     0
176
     0
290
     0
176
     0
290
     0
176
     0
290
     0
176
     0
 90
       50
176
     0
 40
0.0
176
     0
 40
1.0
176
     0
 90
        0
176
     0
 62
    18
420
        0
176
     0
 90
       50
176
     0
 90
        3
176
     0
 62
     5
420
      255
176
     0
290
     0
176
     0
 90
       50
176
     0
 90
       50
176
     0
 90
       50
176
     0
290
     0
176
     0
 90
       50
176
     0
 62
   256
176
     0
 40
1.0
176
     0
 90
        2
176
     0
  1
strokes_ogs.tif
176
     0
290
     0
176
     0
 40
1.0
176
     0
 40
1.0
176
     0
1001
ACAD
1000
AcDbSavedByObjectVersion
1070
     0
  0
VISUALSTYLE
  5
38
102
{ACAD_REACTORS
330
29
102
}
330
29
100
AcDbVisualStyle
  2
Facepattern
 70
    15
177
     3
291
     1
 70
    58
 90
        2
176
     1
 90
        2
176
     1
 90
        0
176
     1
 90
        0
176
     1
 40
0.6
176
     1
 40
30.0
176
     1
 62
     7
420
 16777215
176
     1
 90
        1
176
     1
 90
        4
176
     1
 62
     7
176
     1
 62
   257
176
     1
 90
        1
176
     1
 90
        1
176
     1
 40
1.0
176
     1
 90
        8
176
     1
 62
     7
176
     1
 40
1.0
176
     1
 90
        1
176
     1
 90
        6
176
     1
 90
        2
176
     1
 62
     7
176
     1
 90
        5
176
     1
 90
        0
176
     1
 90
        0
176
     1
290
     0
176
     1
 90
        1
176
     1
 40
0.0
176
     1
 90
        0
176
     1
290
     0
176
     1
290
     1
176
     1
290
     1
176
     1
290
     0
176
     1
290
     0
176
     1
290
     0
176
     1
290
     0
176
     1
290
     0
176
     1
290
     0
176
     1
 90
       50
176
     1
 40
0.0
176
     1
 40
1.0
176
     1
 90
        0
176
     1
 62
    18
420
        0
176
     1
 90
       50
176
     1
 90
        3
176
     1
 62
     5
420
      255
176
     1
290
     0
176
     1
 90
       50
176
     1
 90
       50
176
     1
 90
       50
176
     1
290
     0
176
     1
 90
       50
176
     1
 62
   256
176
     0
 40
1.0
176
     0
 90
        2
176
     1
  1
strokes_ogs.tif
176
     1
290
     0
176
     1
 40
1.0
176
     1
 40
1.0
176
     1
1001
ACAD
1000
AcDbSavedByObjectVersion
1070
     0
  0
VISUALSTYLE
  5
2A
102
{ACAD_REACTORS
330
29
102
}
330
29
100
AcDbVisualStyle
  2
Flat
 70
     0
177
     3
291
     1
 70
    58
 90
        2
176
     1
 90
        1
176
     1
 90
        1
176
     1
 90
        2
176
     1
 40
0.6
176
     1
 40
30.0
176
     1
 62
     7
420
 16777215
176
     1
 90
        0
176
     1
 90
        0
176
     1
 62
     7
176
     1
 62
   257
176
     1
 90
        1
176
     1
 90
        1
176
     1
 40
1.0
176
     1
 90
        8
176
     1
 62
     7
176
     1
 40
1.0
176
     1
 90
        1
176
     1
 90
        6
176
     1
 90
        2
176
     1
 62
     7
176
     1
 90
        5
176
     1
 90
        0
176
     1
 90
        0
176
     1
290
     0
176
     1
 90
       13
176
     1
 40
0.0
176
     1
 90
        0
176
     1
290
     0
176
     1
290
     1
176
     1
290
     1
176
     1
290
     0
176
     1
290
     0
176
     1
290
     0
176
     1
290
     0
176
     1
290
     0
176
     1
290
     0
176
     1
 90
       50
176
     1
 40
0.0
176
     1
 40
1.0
176
     1
 90
        0
176
     1
 62
    18
420
        0
176
     1
 90
       50
176
     1
 90
        3
176
     1
 62
     5
420
      255
176
     1
290
     0
176
     1
 90
       50
176
     1
 90
       50
176
     1
 90
       50
176
     1
290
     0
176
     1
 90
       50
176
     1
 62
   256
176
     0
 40
1.0
176
     0
 90
        2
176
     1
  1
strokes_ogs.tif
176
     1
290
     0
176
     1
 40
1.0
176
     1
 40
1.0
176
     1
1001
ACAD
1000
AcDbSavedByObjectVersion
1070
     0
  0
VISUALSTYLE
  5
2B
102
{ACAD_REACTORS
330
29
102
}
330
29
100
AcDbVisualStyle
  2
FlatWithEdges
 70
     1
177
     3
291
     1
 70
    58
 90
        2
176
     1
 90
        1
176
     1
 90
        1
176
     1
 90
        2
176
     1
 40
0.6
176
     1
 40
30.0
176
     1
 62
     7
420
 16777215
176
     1
 90
        1
176
     1
 90
        0
176
     1
 62
     7
176
     1
 62
   257
176
     1
 90
        1
176
     1
 90
        1
176
     1
 40
1.0
176
     1
 90
        0
176
     1
 62
   257
176
     1
 40
1.0
176
     1
 90
        1
176
     1
 90
        6
176
     1
 90
        2
176
     1
 62
     7
176
     1
 90
        5
176
     1
 90
        0
176
     1
 90
        0
176
     1
290
     0
176
     1
 90
       13
176
     1
 40
0.0
176
     1
 90
        0
176
     1
290
     0
176
     1
290
     1
176
     1
290
     1
176
     1
290
     0
176
     1
290
     0
176
     1
290
     0
176
     1
290
     0
176
     1
290
     0
176
     1
290
     0
176
     1
 90
       50
176
     1
 40
0.0
176
     1
 40
1.0
176
     1
 90
        0
176
     1
 62
    18
420
        0
176
     1
 90
       50
176
     1
 90
        3
176
     1
 62
     5
420
      255
176
     1
290
     0
176
     1
 90
       50
176
     1
 90
       50
176
     1
 90
       50
176
     1
290
     0
176
     1
 90
       50
176
     1
 62
   256
176
     0
 40
1.0
176
     0
 90
        2
176
     1
  1
strokes_ogs.tif
176
     1
290
     0
176
     1
 40
1.0
176
     1
 40
1.0
176
     1
1001
ACAD
1000
AcDbSavedByObjectVersion
1070
     0
  0
VISUALSTYLE
  5
2C
102
{ACAD_REACTORS
330
29
102
}
330
29
100
AcDbVisualStyle
  2
Gouraud
 70
     2
177
     3
291
     1
 70
    58
 90
        2
176
     1
 90
        2
176
     1
 90
        1
176
     1
 90
        2
176
     1
 40
0.6
176
     1
 40
30.0
176
     1
 62
     7
420
 16777215
176
     1
 90
        0
176
     1
 90
        0
176
     1
 62
     7
176
     1
 62
   257
176
     1
 90
        1
176
     1
 90
        1
176
     1
 40
1.0
176
     1
 90
        0
176
     1
 62
     7
176
     1
 40
1.0
176
     1
 90
        1
176
     1
 90
        6
176
     1
 90
        2
176
     1
 62
     7
176
     1
 90
        5
176
     1
 90
        0
176
     1
 90
        0
176
     1
290
     0
176
     1
 90
       13
176
     1
 40
0.0
176
     1
 90
        0
176
     1
290
     0
176
     1
290
     1
176
     1
290
     1
176
     1
290
     0
176
     1
290
     0
176
     1
290
     0
176
     1
290
     0
176
     1
290
     0
176
     1
290
     0
176
     1
 90
       50
176
     1
 40
0.0
176
     1
 40
1.0
176
     1
 90
        0
176
     1
 62
    18
420
        0
176
     1
 90
       50
176
     1
 90
        3
176
     1
 62
     5
420
      255
176
     1
290
     0
176
     1
 90
       50
176
     1
 90
       50
176
     1
 90
       50
176
     1
290
     0
176
     1
 90
       50
176
     1
 62
   256
176
     0
 40
1.0
176
     0
 90
        2
176
     1
  1
strokes_ogs.tif
176
     1
290
     0
176
     1
 40
1.0
176
     1
 40
1.0
176
     1
1001
ACAD
1000
AcDbSavedByObjectVersion
1070
     0
  0
VISUALSTYLE
  5
2D
102
{ACAD_REACTORS
330
29
102
}
330
29
100
AcDbVisualStyle
  2
GouraudWithEdges
 70
     3
177
     3
291
     1
 70
    58
 90
        2
176
     1
 90
        2
176
     1
 90
        1
176
     1
 90
        2
176
     1
 40
0.6
176
     1
 40
30.0
176
     1
 62
     7
420
 16777215
176
     1
 90
        1
176
     1
 90
        0
176
     1
 62
     7
176
     1
 62
   257
176
     1
 90
        1
176
     1
 90
        1
176
     1
 40
1.0
176
     1
 90
        0
176
     1
 62
   257
176
     1
 40
1.0
176
     1
 90
        1
176
     1
 90
        6
176
     1
 90
        2
176
     1
 62
     7
176
     1
 90
        5
176
     1
 90
        0
176
     1
 90
        0
176
     1
290
     0
176
     1
 90
       13
176
     1
 40
0.0
176
     1
 90
        0
176
     1
290
     0
176
     1
290
     1
176
     1
290
     1
176
     1
290
     0
176
     1
290
     0
176
     1
290
     0
176
     1
290
     0
176
     1
290
     0
176
     1
290
     0
176
     1
 90
       50
176
     1
 40
0.0
176
     1
 40
1.0
176
     1
 90
        0
176
     1
 62
    18
420
        0
176
     1
 90
       50
176
     1
 90
        3
176
     1
 62
     5
420
      255
176
     1
290
     0
176
     1
 90
       50
176
     1
 90
       50
176
     1
 90
       50
176
     1
290
     0
176
     1
 90
       50
176
     1
 62
   256
176
     0
 40
1.0
176
     0
 90
        2
176
     1
  1
strokes_ogs.tif
176
     1
290
     0
176
     1
 40
1.0
176
     1
 40
1.0
176
     1
1001
ACAD
1000
AcDbSavedByObjectVersion
1070
     0
  0
VISUALSTYLE
  5
31
102
{ACAD_REACTORS
330
29
102
}
330
29
100
AcDbVisualStyle
  2
Hidden
 70
     6
177
     3
291
     0
 70
    58
 90
        1
176
     1
 90
        2
176
     1
 90
        2
176
     1
 90
        0
176
     1
 40
0.6
176
     1
 40
30.0
176
     1
 62
     7
420
 16777215
176
     1
 90
        2
176
     1
 90
        2
176
     1
 62
     7
176
     1
 62
   257
176
     1
 90
        2
176
     1
 90
        1
176
     1
 40
40.0
176
     1
 90
        0
176
     1
 62
   257
176
     1
 40
1.0
176
     1
 90
        1
176
     1
 90
        6
176
     1
 90
        2
176
     1
 62
     7
176
     1
 90
        3
176
     1
 90
        0
176
     1
 90
        0
176
     1
290
     0
176
     1
 90
        1
176
     1
 40
0.0
176
     1
 90
        0
176
     1
290
     0
176
     1
290
     1
176
     1
290
     1
176
     1
290
     0
176
     1
290
     0
176
     1
290
     0
176
     1
290
     0
176
     1
290
     0
176
     1
290
     0
176
     1
 90
       50
176
     1
 40
0.0
176
     1
 40
1.0
176
     1
 90
        0
176
     1
 62
    18
420
        0
176
     1
 90
       50
176
     1
 90
        3
176
     1
 62
     5
420
      255
176
     1
290
     0
176
     1
 90
       50
176
     1
 90
       50
176
     1
 90
       50
176
     1
290
     0
176
     1
 90
       50
176
     1
 62
   256
176
     0
 40
1.0
176
     0
 90
        2
176
     1
  1
strokes_ogs.tif
176
     1
290
     0
176
     1
 40
1.0
176
     1
 40
1.0
176
     1
1001
ACAD
1000
AcDbSavedByObjectVersion
1070
     0
  0
VISUALSTYLE
  5
3F
102
{ACAD_REACTORS
330
29
102
}
330
29
100
AcDbVisualStyle
  2
JitterOff
 70
    20
177
     3
291
     1
 70
    58
 90
        2
176
     0
 90
        2
176
     0
 90
        0
176
     0
 90
        0
176
     0
 40
0.6
176
     0
 40
30.0
176
     0
 62
     7
420
 16777215
176
     0
 90
        1
176
     0
 90
        4
176
     0
 62
     7
176
     0
 62
   257
176
     0
 90
        1
176
     0
 90
        1
176
     0
 40
1.0
176
     0
 90
       10
176
     2
 62
     7
176
     0
 40
1.0
176
     0
 90
        1
176
     0
 90
        6
176
     0
 90
        2
176
     0
 62
     7
176
     0
 90
        5
176
     0
 90
        0
176
     0
 90
        0
176
     0
290
     0
176
     0
 90
        1
176
     0
 40
0.0
176
     0
 90
        0
176
     0
290
     0
176
     0
290
     1
176
     0
290
     1
176
     0
290
     0
176
     0
290
     0
176
     0
290
     0
176
     0
290
     0
176
     0
290
     0
176
     0
290
     0
176
     0
 90
       50
176
     0
 40
0.0
176
     0
 40
1.0
176
     0
 90
        0
176
     0
 62
    18
420
        0
176
     0
 90
       50
176
     0
 90
        3
176
     0
 62
     5
420
      255
176
     0
290
     0
176
     0
 90
       50
176
     0
 90
       50
176
     0
 90
       50
176
     0
290
     0
176
     0
 90
       50
176
     0
 62
   256
176
     0
 40
1.0
176
     0
 90
        2
176
     0
  1
strokes_ogs.tif
176
     0
290
     0
176
     0
 40
1.0
176
     0
 40
1.0
176
     0
1001
ACAD
1000
AcDbSavedByObjectVersion
1070
     0
  0
VISUALSTYLE
  5
37
102
{ACAD_REACTORS
330
29
102
}
330
29
100
AcDbVisualStyle
  2
Linepattern
 70
    14
177
     3
291
     1
 70
    58
 90
        2
176
     1
 90
        2
176
     1
 90
        0
176
     1
 90
        0
176
     1
 40
0.6
176
     1
 40
30.0
176
     1
 62
     7
420
 16777215
176
     1
 90
        1
176
     1
 90
        4
176
     1
 62
     7
176
     1
 62
   257
176
     1
 90
        7
176
     1
 90
        7
176
     1
 40
1.0
176
     1
 90
        8
176
     1
 62
     7
176
     1
 40
1.0
176
     1
 90
        1
176
     1
 90
        6
176
     1
 90
        2
176
     1
 62
     7
176
     1
 90
        5
176
     1
 90
        0
176
     1
 90
        0
176
     1
290
     0
176
     1
 90
        1
176
     1
 40
0.0
176
     1
 90
        0
176
     1
290
     0
176
     1
290
     1
176
     1
290
     1
176
     1
290
     0
176
     1
290
     0
176
     1
290
     0
176
     1
290
     0
176
     1
290
     0
176
     1
290
     0
176
     1
 90
       50
176
     1
 40
0.0
176
     1
 40
1.0
176
     1
 90
        0
176
     1
 62
    18
420
        0
176
     1
 90
       50
176
     1
 90
        3
176
     1
 62
     5
420
      255
176
     1
290
     0
176
     1
 90
       50
176
     1
 90
       50
176
     1
 90
       50
176
     1
290
     0
176
     1
 90
       50
176
     1
 62
   256
176
     0
 40
1.0
176
     0
 90
        2
176
     1
  1
strokes_ogs.tif
176
     1
290
     0
176
     1
 40
1.0
176
     1
 40
1.0
176
     1
1001
ACAD
1000
AcDbSavedByObjectVersion
1070
     0
  0
VISUALSTYLE
  5
40
102
{ACAD_REACTORS
330
29
102
}
330
29
100
AcDbVisualStyle
  2
OverhangOff
 70
    21
177
     3
291
     1
 70
    58
 90
        2
176
     0
 90
        2
176
     0
 90
        0
176
     0
 90
        0
176
     0
 40
0.6
176
     0
 40
30.0
176
     0
 62
     7
420
 16777215
176
     0
 90
        1
176
     0
 90
        4
176
     0
 62
     7
176
     0
 62
   257
176
     0
 90
        1
176
     0
 90
        1
176
     0
 40
1.0
176
     0
 90
        9
176
     2
 62
     7
176
     0
 40
1.0
176
     0
 90
        1
176
     0
 90
        6
176
     0
 90
        2
176
     0
 62
     7
176
     0
 90
        5
176
     0
 90
        0
176
     0
 90
        0
176
     0
290
     0
176
     0
 90
        1
176
     0
 40
0.0
176
     0
 90
        0
176
     0
290
     0
176
     0
290
     1
176
     0
290
     1
176
     0
290
     0
176
     0
290
     0
176
     0
290
     0
176
     0
290
     0
176
     0
290
     0
176
     0
290
     0
176
     0
 90
       50
176
     0
 40
0.0
176
     0
 40
1.0
176
     0
 90
        0
176
     0
 62
    18
420
        0
176
     0
 90
       50
176
     0
 90
        3
176
     0
 62
     5
420
      255
176
     0
290
     0
176
     0
 90
       50
176
     0
 90
       50
176
     0
 90
       50
176
     0
290
     0
176
     0
 90
       50
176
     0
 62
   256
176
     0
 40
1.0
176
     0
 90
        2
176
     0
  1
strokes_ogs.tif
176
     0
290
     0
176
     0
 40
1.0
176
     0
 40
1.0
176
     0
1001
ACAD
1000
AcDbSavedByObjectVersion
1070
     0
  0
VISUALSTYLE
  5
33
102
{ACAD_REACTORS
330
29
102
}
330
29
100
AcDbVisualStyle
  2
Realistic
 70
     8
177
     3
291
     0
 70
    58
 90
        2
176
     1
 90
        3
176
     1
 90
        0
176
     1
 90
        2
176
     1
 40
0.6
176
     1
 40
30.0
176
     1
 62
     7
420
 16777215
176
     1
 90
        0
176
     1
 90
        0
176
     1
 62
     7
176
     1
 62
   257
176
     1
 90
        1
176
     1
 90
        1
176
     1
 40
1.0
176
     1
 90
        8
176
     1
 62
   257
176
     1
 40
1.0
176
     1
 90
        1
176
     1
 90
        6
176
     1
 90
        2
176
     1
 62
     7
176
     1
 90
        3
176
     1
 90
        0
176
     1
 90
        0
176
     1
290
     0
176
     1
 90
       13
176
     1
 40
0.0
176
     1
 90
        0
176
     1
290
     0
176
     1
290
     1
176
     1
290
     1
176
     1
290
     0
176
     1
290
     0
176
     1
290
     0
176
     1
290
     0
176
     1
290
     0
176
     1
290
     0
176
     1
 90
       50
176
     1
 40
0.0
176
     1
 40
1.0
176
     1
 90
        0
176
     1
 62
    18
420
        0
176
     1
 90
       50
176
     1
 90
        3
176
     1
 62
     5
420
      255
176
     1
290
     0
176
     1
 90
       50
176
     1
 90
       50
176
     1
 90
       50
176
     1
290
     0
176
     1
 90
       50
176
     1
 62
   256
176
     0
 40
1.0
176
     0
 90
        2
176
     1
  1
strokes_ogs.tif
176
     1
290
     0
176
     1
 40
1.0
176
     1
 40
1.0
176
     1
1001
ACAD
1000
AcDbSavedByObjectVersion
1070
     0
  0
VISUALSTYLE
  5
3E
102
{ACAD_REACTORS
330
29
102
}
330
29
100
AcDbVisualStyle
  2
Shaded
 70
    27
177
     3
291
     0
 70
    58
 90
        2
176
     1
 90
        2
176
     1
 90
        1
176
     1
 90
        2
176
     1
 40
0.6
176
     1
 40
30.0
176
     1
 62
     7
420
 16777215
176
     1
 90
        0
176
     1
 90
        4
176
     1
 62
     7
176
     1
 62
   257
176
     1
 90
        1
176
     1
 90
        1
176
     1
 40
1.0
176
     1
 90
        8
176
     1
 62
   257
176
     1
 40
1.0
176
     1
 90
        1
176
     1
 90
        6
176
     1
 90
        2
176
     1
 62
     8
420
  7895160
176
     1
 90
        3
176
     1
 90
        0
176
     1
 90
        0
176
     1
290
     0
176
     1
 90
        5
176
     1
 40
0.0
176
     1
 90
        0
176
     1
290
     0
176
     1
290
     1
176
     1
290
     1
176
     1
290
     0
176
     1
290
     0
176
     1
290
     0
176
     1
290
     0
176
     1
290
     0
176
     1
290
     0
176
     1
 90
       50
176
     1
 40
0.0
176
     1
 40
1.0
176
     1
 90
        0
176
     1
 62
    18
420
        0
176
     1
 90
       50
176
     1
 90
        3
176
     1
 62
     5
420
      255
176
     1
290
     0
176
     1
 90
       50
176
     1
 90
       50
176
     1
 90
       50
176
     1
290
     0
176
     1
 90
       50
176
     1
 62
   256
176
     0
 40
1.0
176
     0
 90
        2
176
     1
  1
strokes_ogs.tif
176
     1
290
     0
176
     1
 40
1.0
176
     1
 40
1.0
176
     1
1001
ACAD
1000
AcDbSavedByObjectVersion
1070
     0
  0
VISUALSTYLE
  5
3D
102
{ACAD_REACTORS
330
29
102
}
330
29
100
AcDbVisualStyle
  2
Shaded with edges
 70
    26
177
     3
291
     0
 70
    58
 90
        2
176
     1
 90
        2
176
     1
 90
        1
176
     1
 90
        2
176
     1
 40
0.6
176
     1
 40
30.0
176
     1
 62
     7
420
 16777215
176
     1
 90
        1
176
     1
 90
        2
176
     1
 62
     7
176
     1
 62
   257
176
     1
 90
        2
176
     1
 90
        1
176
     1
 40
1.0
176
     1
 90
        8
176
     1
 62
   257
176
     1
 40
1.0
176
     1
 90
        1
176
     1
 90
        6
176
     1
 90
        2
176
     1
 62
     7
176
     1
 90
        3
176
     1
 90
        0
176
     1
 90
        0
176
     1
290
     0
176
     1
 90
        5
176
     1
 40
0.0
176
     1
 90
        0
176
     1
290
     0
176
     1
290
     1
176
     1
290
     1
176
     1
290
     0
176
     1
290
     0
176
     1
290
     0
176
     1
290
     0
176
     1
290
     0
176
     1
290
     0
176
     1
 90
       50
176
     1
 40
0.0
176
     1
 40
1.0
176
     1
 90
        0
176
     1
 62
    18
420
        0
176
     1
 90
       50
176
     1
 90
        3
176
     1
 62
     5
420
      255
176
     1
290
     0
176
     1
 90
       50
176
     1
 90
       50
176
     1
 90
       50
176
     1
290
     0
176
     1
 90
       50
176
     1
 62
   256
176
     0
 40
1.0
176
     0
 90
        2
176
     1
  1
strokes_ogs.tif
176
     1
290
     0
176
     1
 40
1.0
176
     1
 40
1.0
176
     1
1001
ACAD
1000
AcDbSavedByObjectVersion
1070
     0
  0
VISUALSTYLE
  5
3A
102
{ACAD_REACTORS
330
29
102
}
330
29
100
AcDbVisualStyle
  2
Shades of Gray
 70
    23
177
     3
291
     0
 70
    58
 90
        2
176
     1
 90
        2
176
     1
 90
        3
176
     1
 90
        0
176
     1
 40
0.6
176
     1
 40
30.0
176
     1
 62
     7
420
 16777215
176
     1
 90
        2
176
     1
 90
        2
176
     1
 62
     7
176
     1
 62
     7
176
     1
 90
        1
176
     1
 90
        1
176
     1
 40
40.0
176
     1
 90
        8
176
     1
 62
     7
176
     1
 40
1.0
176
     1
 90
        1
176
     1
 90
        6
176
     1
 90
        2
176
     1
 62
     7
176
     1
 90
        3
176
     1
 90
        0
176
     1
 90
        0
176
     1
290
     0
176
     1
 90
        1
176
     1
 40
0.0
176
     1
 90
        0
176
     1
290
     0
176
     1
290
     1
176
     1
290
     1
176
     1
290
     0
176
     1
290
     0
176
     1
290
     0
176
     1
290
     0
176
     1
290
     0
176
     1
290
     0
176
     1
 90
       50
176
     1
 40
0.0
176
     1
 40
1.0
176
     1
 90
        0
176
     1
 62
    18
420
        0
176
     1
 90
       50
176
     1
 90
        3
176
     1
 62
     5
420
      255
176
     1
290
     0
176
     1
 90
       50
176
     1
 90
       50
176
     1
 90
       50
176
     1
290
     0
176
     1
 90
       50
176
     1
 62
   256
176
     0
 40
1.0
176
     0
 90
        2
176
     1
  1
strokes_ogs.tif
176
     1
290
     0
176
     1
 40
1.0
176
     1
 40
1.0
176
     1
1001
ACAD
1000
AcDbSavedByObjectVersion
1070
     0
  0
VISUALSTYLE
  5
3B
102
{ACAD_REACTORS
330
29
102
}
330
29
100
AcDbVisualStyle
  2
Sketchy
 70
    24
177
     3
291
     0
 70
    58
 90
        1
176
     1
 90
        2
176
     1
 90
        2
176
     1
 90
        0
176
     1
 40
0.6
176
     1
 40
30.0
176
     1
 62
     7
420
 16777215
176
     1
 90
        2
176
     1
 90
        2
176
     1
 62
     7
176
     1
 62
     7
176
     1
 90
        1
176
     1
 90
        1
176
     1
 40
40.0
176
     1
 90
       11
176
     1
 62
     7
176
     1
 40
1.0
176
     1
 90
        1
176
     1
 90
        6
176
     1
 90
        2
176
     1
 62
     7
176
     1
 90
        6
176
     1
 90
        0
176
     1
 90
        0
176
     1
290
     0
176
     1
 90
        1
176
     1
 40
0.0
176
     1
 90
        0
176
     1
290
     0
176
     1
290
     1
176
     1
290
     1
176
     1
290
     0
176
     1
290
     0
176
     1
290
     0
176
     1
290
     0
176
     1
290
     0
176
     1
290
     0
176
     1
 90
       50
176
     1
 40
0.0
176
     1
 40
1.0
176
     1
 90
        0
176
     1
 62
    18
420
        0
176
     1
 90
       50
176
     1
 90
        3
176
     1
 62
     5
420
      255
176
     1
290
     0
176
     1
 90
       50
176
     1
 90
       50
176
     1
 90
       50
176
     1
290
     0
176
     1
 90
       50
176
     1
 62
   256
176
     0
 40
1.0
176
     0
 90
        2
176
     1
  1
strokes_ogs.tif
176
     1
290
     0
176
     1
 40
1.0
176
     1
 40
1.0
176
     1
1001
ACAD
1000
AcDbSavedByObjectVersion
1070
     0
  0
VISUALSTYLE
  5
36
102
{ACAD_REACTORS
330
29
102
}
330
29
100
AcDbVisualStyle
  2
Thicken
 70
    13
177
     3
291
     1
 70
    58
 90
        2
176
     1
 90
        2
176
     1
 90
        0
176
     1
 90
        0
176
     1
 40
0.6
176
     1
 40
30.0
176
     1
 62
     7
420
 16777215
176
     1
 90
        1
176
     1
 90
        4
176
     1
 62
     7
176
     1
 62
   257
176
     1
 90
        1
176
     1
 90
        1
176
     1
 40
1.0
176
     1
 90
       12
176
     1
 62
     7
176
     1
 40
1.0
176
     1
 90
        1
176
     1
 90
        6
176
     1
 90
        2
176
     1
 62
     7
176
     1
 90
        5
176
     1
 90
        0
176
     1
 90
        0
176
     1
290
     0
176
     1
 90
        1
176
     1
 40
0.0
176
     1
 90
        0
176
     1
290
     0
176
     1
290
     1
176
     1
290
     1
176
     1
290
     0
176
     1
290
     0
176
     1
290
     0
176
     1
290
     0
176
     1
290
     0
176
     1
290
     0
176
     1
 90
       50
176
     1
 40
0.0
176
     1
 40
1.0
176
     1
 90
        0
176
     1
 62
    18
420
        0
176
     1
 90
       50
176
     1
 90
        3
176
     1
 62
     5
420
      255
176
     1
290
     0
176
     1
 90
       50
176
     1
 90
       50
176
     1
 90
       50
176
     1
290
     0
176
     1
 90
       50
176
     1
 62
   256
176
     0
 40
1.0
176
     0
 90
        2
176
     1
  1
strokes_ogs.tif
176
     1
290
     0
176
     1
 40
1.0
176
     1
 40
1.0
176
     1
1001
ACAD
1000
AcDbSavedByObjectVersion
1070
     0
  0
VISUALSTYLE
  5
30
102
{ACAD_REACTORS
330
29
102
}
330
29
100
AcDbVisualStyle
  2
Wireframe
 70
     5
177
     3
291
     0
 70
    58
 90
        0
176
     1
 90
        2
176
     1
 90
        0
176
     1
 90
        0
176
     1
 40
0.6
176
     1
 40
30.0
176
     1
 62
     7
420
 16777215
176
     1
 90
        1
176
     1
 90
        4
176
     1
 62
     7
176
     1
 62
   257
176
     1
 90
        1
176
     1
 90
        1
176
     1
 40
1.0
176
     1
 90
        0
176
     1
 62
   257
176
     1
 40
1.0
176
     1
 90
        1
176
     1
 90
        6
176
     1
 90
        2
176
     1
 62
     7
176
     1
 90
        3
176
     1
 90
        0
176
     1
 90
        0
176
     1
290
     0
176
     1
 90
        1
176
     1
 40
0.0
176
     1
 90
        0
176
     1
290
     0
176
     1
290
     1
176
     1
290
     1
176
     1
290
     0
176
     1
290
     0
176
     1
290
     0
176
     1
290
     0
176
     1
290
     0
176
     1
290
     0
176
     1
 90
       50
176
     1
 40
0.0
176
     1
 40
1.0
176
     1
 90
        0
176
     1
 62
    18
420
        0
176
     1
 90
       50
176
     1
 90
        3
176
     1
 62
     5
420
      255
176
     1
290
     0
176
     1
 90
       50
176
     1
 90
       50
176
     1
 90
       50
176
     1
290
     0
176
     1
 90
       50
176
     1
 62
   256
176
     0
 40
1.0
176
     0
 90
        2
176
     1
  1
strokes_ogs.tif
176
     1
290
     0
176
     1
 40
1.0
176
     1
 40
1.0
176
     1
1001
ACAD
1000
AcDbSavedByObjectVersion
1070
     0
  0
VISUALSTYLE
  5
3C
102
{ACAD_REACTORS
330
29
102
}
330
29
100
AcDbVisualStyle
  2
X-Ray
 70
    25
177
     3
291
     0
 70
    58
 90
        2
176
     1
 90
        2
176
     1
 90
        1
176
     1
 90
        1
176
     1
 40
0.5
176
     1
 40
30.0
176
     1
 62
     7
420
 16777215
176
     1
 90
        1
176
     1
 90
        0
176
     1
 62
     7
176
     1
 62
   257
176
     1
 90
        1
176
     1
 90
        1
176
     1
 40
1.0
176
     1
 90
        8
176
     1
 62
     7
176
     1
 40
1.0
176
     1
 90
        1
176
     1
 90
        6
176
     1
 90
        2
176
     1
 62
     7
176
     1
 90
        3
176
     1
 90
        0
176
     1
 90
        0
176
     1
290
     0
176
     1
 90
       13
176
     1
 40
0.0
176
     1
 90
        0
176
     1
290
     0
176
     1
290
     1
176
     1
290
     1
176
     1
290
     0
176
     1
290
     0
176
     1
290
     0
176
     1
290
     0
176
     1
290
     0
176
     1
290
     0
176
     1
 90
       50
176
     1
 40
0.0
176
     1
 40
1.0
176
     1
 90
        0
176
     1
 62
    18
420
        0
176
     1
 90
       50
176
     1
 90
        3
176
     1
 62
     5
420
      255
176
     1
290
     0
176
     1
 90
       50
176
     1
 90
       50
176
     1
 90
       50
176
     1
290
     0
176
     1
 90
       50
176
     1
 62
   256
176
     0
 40
1.0
176
     0
 90
        2
176
     1
  1
strokes_ogs.tif
176
     1
290
     0
176
     1
 40
1.0
176
     1
 40
1.0
176
     1
1001
ACAD
1000
AcDbSavedByObjectVersion
1070
     0
  0
DICTIONARYVAR
  5
EB
102
{ACAD_REACTORS
330
E6
102
}
330
E6
100
DictionaryVariables
280
     0
  1
1:1
  0
DICTIONARYVAR
  5
E8
102
{ACAD_REACTORS
330
E6
102
}
330
E6
100
DictionaryVariables
280
     0
  1
STANDARD
  0
DICTIONARYVAR
  5
E7
102
{ACAD_REACTORS
330
E6
102
}
330
E6
100
DictionaryVariables
280
     0
  1
STANDARD
  0
DICTIONARYVAR
  5
E9
102
{ACAD_REACTORS
330
E6
102
}
330
E6
100
DictionaryVariables
280
     0
  1
Imperial24
  0
DICTIONARYVAR
  5
EA
102
{ACAD_REACTORS
330
E6
102
}
330
E6
100
DictionaryVariables
280
     0
  1
Imperial24
  0
DICTIONARY
  5
F1
330
6B
100
AcDbDictionary
280
     1
281
     1
  3
ACAD_XREC_ROUNDTRIP
360
F2
  0
DICTIONARY
  5
1A
330
19
100
AcDbDictionary
280
     1
281
     1
  3
BUMPTILE
360
1C
  3
DIFFUSETILE
360
1B
  3
OPACITYTILE
360
1F
  3
REFLECTIONTILE
360
1E
  3
REFRACTIONTILE
360
20
  3
SPECULARTILE
360
1D
  0
DICTIONARY
  5
12
330
11
100
AcDbDictionary
280
     1
281
     1
  3
BUMPTILE
360
14
  3
DIFFUSETILE
360
13
  3
OPACITYTILE
360
17
  3
REFLECTIONTILE
360
16
  3
REFRACTIONTILE
360
18
  3
SPECULARTILE
360
15
  0
DICTIONARY
  5
22
330
21
100
AcDbDictionary
280
     1
281
     1
  3
BUMPTILE
360
24
  3
DIFFUSETILE
360
23
  3
OPACITYTILE
360
27
  3
REFLECTIONTILE
360
26
  3
REFRACTIONTILE
360
28
  3
SPECULARTILE
360
25
  0
DICTIONARY
  5
EF
330
69
100
AcDbDictionary
280
     1
281
     1
  3
ACAD_XREC_ROUNDTRIP
360
F0
  0
DICTIONARY
  5
EC
330
65
100
AcDbDictionary
280
     1
281
     1
  3
ACAD_ROUNDTRIP_2008_TABLESTYLE_CELLSTYLEMAP
360
ED
  0
XRECORD
  5
F2
102
{ACAD_REACTORS
330
F1
102
}
330
F1
100
AcDbXrecord
280
     1
102
DISPLAYNAME
  1
Imperial24
102
FLAGS
 90
        0
  0
XRECORD
  5
1C
102
{ACAD_REACTORS
330
1A
102
}
330
1A
100
AcDbXrecord
280
     1
270
     1
271
     1
  0
XRECORD
  5
1B
102
{ACAD_REACTORS
330
1A
102
}
330
1A
100
AcDbXrecord
280
     1
270
     1
271
     1
  0
XRECORD
  5
1F
102
{ACAD_REACTORS
330
1A
102
}
330
1A
100
AcDbXrecord
280
     1
270
     1
271
     1
  0
XRECORD
  5
1E
102
{ACAD_REACTORS
330
1A
102
}
330
1A
100
AcDbXrecord
280
     1
270
     1
271
     1
  0
XRECORD
  5
20
102
{ACAD_REACTORS
330
1A
102
}
330
1A
100
AcDbXrecord
280
     1
270
     1
271
     1
  0
XRECORD
  5
1D
102
{ACAD_REACTORS
330
1A
102
}
330
1A
100
AcDbXrecord
280
     1
270
     1
271
     1
  0
XRECORD
  5
14
102
{ACAD_REACTORS
330
12
102
}
330
12
100
AcDbXrecord
280
     1
270
     1
271
     1
  0
XRECORD
  5
13
102
{ACAD_REACTORS
330
12
102
}
330
12
100
AcDbXrecord
280
     1
270
     1
271
     1
  0
XRECORD
  5
17
102
{ACAD_REACTORS
330
12
102
}
330
12
100
AcDbXrecord
280
     1
270
     1
271
     1
  0
XRECORD
  5
16
102
{ACAD_REACTORS
330
12
102
}
330
12
100
AcDbXrecord
280
     1
270
     1
271
     1
  0
XRECORD
  5
18
102
{ACAD_REACTORS
330
12
102
}
330
12
100
AcDbXrecord
280
     1
270
     1
271
     1
  0
XRECORD
  5
15
102
{ACAD_REACTORS
330
12
102
}
330
12
100
AcDbXrecord
280
     1
270
     1
271
     1
  0
XRECORD
  5
24
102
{ACAD_REACTORS
330
22
102
}
330
22
100
AcDbXrecord
280
     1
270
     1
271
     1
  0
XRECORD
  5
23
102
{ACAD_REACTORS
330
22
102
}
330
22
100
AcDbXrecord
280
     1
270
     1
271
     1
  0
XRECORD
  5
27
102
{ACAD_REACTORS
330
22
102
}
330
22
100
AcDbXrecord
280
     1
270
     1
271
     1
  0
XRECORD
  5
26
102
{ACAD_REACTORS
330
22
102
}
330
22
100
AcDbXrecord
280
     1
270
     1
271
     1
  0
XRECORD
  5
28
102
{ACAD_REACTORS
330
22
102
}
330
22
100
AcDbXrecord
280
     1
270
     1
271
     1
  0
XRECORD
  5
25
102
{ACAD_REACTORS
330
22
102
}
330
22
100
AcDbXrecord
280
     1
270
     1
271
     1
  0
XRECORD
  5
F0
102
{ACAD_REACTORS
330
EF
102
}
330
EF
100
AcDbXrecord
280
     1
102
DISPLAYNAME
  1
Imperial24
102
FLAGS
 90
        0
  0
CELLSTYLEMAP
  5
ED
102
{ACAD_REACTORS
330
EC
102
}
330
EC
100
AcDbCellStyleMap
 90
        3
300
CELLSTYLE
  1
TABLEFORMAT_BEGIN
 90
        5
170
     1
 91
        0
 92
    32768
 62
   257
 93
        1
300
CONTENTFORMAT
  1
CONTENTFORMAT_BEGIN
 90
        0
 91
        0
 92
      512
 93
        0
300

 40
0.0
140
1.0
 94
        5
 62
     0
340
55
144
0.25
309
CONTENTFORMAT_END
171
     0
 94
        0
309
TABLEFORMAT_END
  1
CELLSTYLE_BEGIN
 90
        1
 91
        1
300
_TITLE
309
CELLSTYLE_END
300
CELLSTYLE
  1
TABLEFORMAT_BEGIN
 90
        5
170
     1
 91
        0
 92
        0
 62
   257
 93
        1
300
CONTENTFORMAT
  1
CONTENTFORMAT_BEGIN
 90
        0
 91
        0
 92
      512
 93
        0
300

 40
0.0
140
1.0
 94
        5
 62
     0
340
55
144
0.18
309
CONTENTFORMAT_END
171
     0
 94
        0
309
TABLEFORMAT_END
  1
CELLSTYLE_BEGIN
 90
        2
 91
        1
300
_HEADER
309
CELLSTYLE_END
300
CELLSTYLE
  1
TABLEFORMAT_BEGIN
 90
        5
170
     1
 91
        0
 92
        0
 62
   257
 93
        1
300
CONTENTFORMAT
  1
CONTENTFORMAT_BEGIN
 90
        0
 91
        0
 92
      512
 93
        0
300

 40
0.0
140
1.0
 94
        2
 62
     0
340
55
144
0.18
309
CONTENTFORMAT_END
171
     0
 94
        0
309
TABLEFORMAT_END
  1
CELLSTYLE_BEGIN
 90
        3
 91
        2
300
_DATA
309
CELLSTYLE_END
  0
ENDSEC
  0
EOF
